<?xml version="1.0" encoding="UTF-8"?>
<svg id="a" data-name="Calque 1" xmlns="http://www.w3.org/2000/svg" width="392.9mm" height="92mm" viewBox="0 0 1113.8 260.9">
  <defs>
    <style>
      .b, .c, .d {
        stroke-width: 0px;
      }

      .c, .e {
        fill: #1d1d1b;
      }

      .d {
        fill: #fff;
      }

      .e {
        font-family: colourmepurple, 'colour me purple';
        font-size: 72px;
      }
    </style>
  </defs>
  <g>
    <path class="b" d="m111.5,73c-.5,3.4-1.2,7.2-1.5,11.1-.2,2.7.3,5.4.6,8.1.2,2.2.8,4.3,1,6.5.5,5.3-1.6,9.1-5.5,10.5-4.4,1.6-9.4,0-12.4-3.9-.8-1-1.1-2.3-2-3.2-1-1-2.3-2.2-3.7-2.5-5.4-1.5-10.2-3.8-13.8-8.2-6.7-8.2-10.2-17.7-9.7-28.3.4-8.3,4.1-15.2,10.7-20.2,6.2-4.7,14.9-4.4,21.5-.1,10.7,7,13.6,17.7,14.7,30.1Zm-26-10c-1.2-2.2-1.9-4.1-3.2-5.4-1.1-1.2-2.9-1.7-4.3-2.5-.5,1.3-1,2.6-1.7,4.5-.6-.7-1.5-1.4-1.3-1.9.3-1.2.8-3.1,1.7-3.4,1.6-.5,4-.6,5,.3,2.1,1.9,3.6,4.5,5,6.9,1.3,2.3,2.4,4.6,5.6,5.7.1-2.4.3-4.3.4-6.2.3,0,.7,0,1,.1,0,2.5,1.7,5.2-1.3,7.5-.4.3-.6,1.1-.6,1.7-.1,6.7-.3,13.4-.3,20.1,0,5.2.7,10.2,4,14.5,2.2,2.9,5.3,4.1,8.9,3.6,2.7-.4,5-2.1,5.2-4.9.2-3.7.5-7.8-.6-11.2-1.8-5.7-4.8-11-7.3-16.5-.7-1.7-1.5-3.4-1.9-5.2-.5-2-.2-4-2.7-5.1-.9-.4-1.2-2.3-1.8-3.5,1-.1,1.3.2,1.6.5.8.6,1.6,1.3,2.4,1.9.2-1.1.5-2.1.5-3.2,0-2-.2-3.9-.5-5.9-.4-2.7.3-4.5,3.9-4.7-2.9-2.9-5.7-5.7-9-7.5-5.5-3.1-11.1-3.4-16.6.5-7,4.9-10.2,11.8-10.8,20.1-.8,11.1,3.8,20.4,10.7,28.6,3.1,3.7,7.8,5.4,12.6,6.4,0-5.2,0-9.9,0-14.6,0-.7-.9-1.7-1.6-2-3.4-1.3-4.1-4.3-3.6-7.1.3-1.8,2.2-3.3,3.4-4.9.8,0,.8-.6.6-1.2-1.2-3.8-3.9-5.2-8.1-4.2-3.1.7-4,2.7-3,6.9.5,1.9,1.3,3.7,2.1,6-3.2-1.9-5.1-6.3-4-10.2,1.2-4.4,5.4-3.9,9.8-4.4Zm15.9-1.4c5.1-.7,8,3.1,6.4,7.5-2.1-1.7-.2-6.7-4.5-6-1.1.2-1.8,3.8-2.7,6,6.4,1.3,8.1,6.1,4.5,10.5.4.8.8,1.6,1.3,2.4.4.8.9,1.6,1.7,3.1,2.2-11.8,1.4-22.4-3.2-31.8-1.5.4-2.5.6-4,1,.2,2.3.3,4.9.5,7.5Z"/>
    <path class="d" d="m85.4,63c-4.3.5-8.5,0-9.8,4.4-1.1,3.9.8,8.3,4,10.2-.8-2.3-1.7-4.1-2.1-6-1-4.2-.1-6.1,3-6.9,4.2-1,6.9.4,8.1,4.2.2.5.2,1.1-.6,1.2-1.2,1.6-3.1,3.1-3.4,4.9-.5,2.8.2,5.8,3.6,7.1.7.3,1.6,1.3,1.6,2,.1,4.7,0,9.4,0,14.6-4.8-1-9.5-2.7-12.6-6.4-6.8-8.2-11.4-17.5-10.7-28.6.6-8.2,3.8-15.1,10.8-20.1,5.5-3.9,11.2-3.6,16.6-.5,3.3,1.9,6.1,4.6,9,7.5-3.6.2-4.2,2.1-3.9,4.7.3,1.9.4,3.9.5,5.9,0,1.1-.3,2.1-.5,3.2-.8-.6-1.6-1.2-2.4-1.9-.3-.3-.6-.6-1.6-.5.6,1.2.9,3.1,1.8,3.5,2.5,1.1,2.2,3.1,2.7,5.1.4,1.8,1.2,3.5,1.9,5.2,2.4,5.5,5.4,10.8,7.3,16.5,1.1,3.5.9,7.5.6,11.2-.2,2.8-2.5,4.4-5.2,4.9-3.6.6-6.7-.7-8.9-3.6-3.3-4.2-3.9-9.3-4-14.5,0-6.7.1-13.4.3-20.1,0-.6.2-1.4.6-1.7,3-2.3,1.4-5,1.3-7.5-.3,0-.7,0-1-.1-.1,1.9-.2,3.8-.4,6.2-3.2-1.1-4.3-3.4-5.6-5.7-1.4-2.5-2.9-5-5-6.9-1-.9-3.5-.7-5-.3-.9.3-1.4,2.1-1.7,3.4-.1.4.8,1.1,1.3,1.9.7-1.9,1.2-3.2,1.7-4.5,1.5.8,3.2,1.4,4.3,2.5,1.3,1.4,2,3.3,3.2,5.4Z"/>
    <path class="d" d="m101.3,61.6c-.2-2.6-.4-5.1-.5-7.5,1.5-.4,2.5-.6,4-1,4.6,9.4,5.4,20,3.2,31.8-.8-1.5-1.3-2.2-1.7-3.1-.4-.8-.9-1.6-1.3-2.4,3.6-4.3,1.9-9.2-4.5-10.5.9-2.2,1.5-5.9,2.7-6,4.2-.6,2.3,4.4,4.5,6,1.6-4.4-1.2-8.1-6.4-7.5Z"/>
  </g>
  <g>
    <path class="b" d="m71.7,131.2c-2.7-.7-5.2-1.3-7.6-2-6.5-1.9-10.1-6.7-12.1-12.8-1.1-3.3.5-9.5,2.7-11.2,3.4-2.6,6.6-2.1,8.7,1.6,1.3,2.3,2.1,4.9,3.3,7.3.8,1.6,1.8,3.1,3,5,1.1-2.6,2-4.6,2.8-6.6,3.5-8.5,10.1-12.7,19.1-13.2,12.4-.7,22.6,6.7,26.2,18.6.7,2.3,1.7,4.5,2.4,6.8.9,3.1.8,6.2-1.1,9-.4.7-1,1.5-1,2.2.2,3.4-1.3,5.2-4.7,5.6-.5,0-1,.6-1.3,1-2.7,3.9-7,5.3-11.2,5.4-8,.2-16-.8-21.8-7.7-.3-.4-.9-.8-1.4-.9-6.3-1.2-6.8-1.9-6.1-8Zm44.1-15.4h.1c-1.3-1.7-2.5-3.7-4-5.4-3.9-4.5-9.8-3.8-14.8-5.1-.5-.1-1.1-.3-1.7-.4.3.6.5,1.1.7,1.5-2.6.4-5.1.7-7.6,1.1.2.5.5.9.7,1.4-1.4.3-2.8.6-4.1.9.3.4.8,1.1,1.6,2-1.5.2-2.7.4-3.6.6.7.7,1.3,1.4,2,2.1-.8.6-1.4,1-2,1.5,6.1,7.7,5.4,13.2-1.6,16.8-.3,2.3-.7,4.4-1,6.6,5.2,7,26.3,9.2,29.8,2.6-4.8,1.8-9.6,1.7-14.2.1-2.9-1-6.5-1.7-7.5-5.5-.5-2.2-.7-4.5-1-6.9,2.1,1.2,4.1,2.4,6.1,3.6,0,.2-.1.3-.2.5-1.3-.2-2.6-.4-3.9-.6-.7,6.2,10.6,10.8,18.7,7.6-1.3-1.1-2.7-2.2-4-3.3.3-.2.5-.5.8-.7,1.6.8,3.1,2,4.8,2.4,2.2.5,5.3,1.7,6.4-1.4,1-2.8-1.8-3.9-3.8-5-1.5-.8-3-1.5-4.6-2.2.2-.4.4-.8.5-1.2,2.7,1,5.4,2,8.5,3.2,1.4-5.8,1.1-11.3-1.2-16.7Zm-39.4,22.8c1.7-1.7,3.6-2.8,3.6-3.8,0-3.2-3.3-.8-4.6-2.2-.7.6-2,1.6-1.8,1.8.6,1.2,1.5,2.3,2.9,4.1Z"/>
    <path class="d" d="m115.8,115.8c2.3,5.4,2.6,11,1.2,16.7-3.1-1.2-5.8-2.2-8.5-3.2-.2.4-.4.8-.5,1.2,1.5.7,3.1,1.5,4.6,2.2,2.1,1.1,4.8,2.1,3.8,5-1.1,3.1-4.1,1.9-6.4,1.4-1.7-.4-3.2-1.6-4.8-2.4-.3.2-.5.5-.8.7,1.3,1.1,2.6,2.2,4,3.3-8.1,3.2-19.5-1.4-18.7-7.6,1.3.2,2.6.4,3.9.6,0-.2.1-.3.2-.5-2-1.2-4-2.4-6.1-3.6.4,2.4.5,4.7,1,6.9.9,3.8,4.6,4.5,7.5,5.5,4.6,1.6,9.4,1.7,14.2-.1-3.5,6.7-24.6,4.5-29.8-2.6.3-2.3.7-4.3,1-6.6,7.1-3.6,7.8-9.1,1.6-16.8.6-.4,1.2-.9,2-1.5-.7-.7-1.3-1.3-2-2.1,1-.2,2.1-.3,3.6-.6-.7-1-1.2-1.6-1.6-2,1.3-.3,2.7-.6,4.1-.9-.2-.5-.5-1-.7-1.4,2.5-.4,5-.7,7.6-1.1-.2-.5-.4-1-.7-1.5.6.1,1.2.2,1.7.4,5.1,1.3,10.9.6,14.8,5.1,1.5,1.7,2.7,3.7,4,5.5-1-1-1.9-2.2-3.1-3-.6-.4-1.9-.3-2.6,0-.7.3-.9,1.4-1.8,2.8,1.6-.8,2.5-1.2,3.3-1.6,1.3,1.4,2.4,2.7,3.8,4.2.2-1.1.3-1.8.4-2.4Zm-21.5,1.2c-.2,2.5-.6,4.6-.5,6.7,0,.7,1.4,2,1.9,1.9.9-.2,2.4-1.3,2.4-1.9-.2-2.4-.8-4.9-1.7-7.2-.2-.6-2.3-.4-3.5-.6,0,.4,0,.8,0,1.1.7,0,1.5,0,1.4,0Zm3.4-4.7c-.2-3.1-1.6-3.9-3.8-3.4-2.7.5-4.1,2.9-3.7,6,2.2-1.6,3.4-5.6,7.5-2.6Zm17.6,13.9c.4-2.8,0-5.4-2.8-5.5-2.3,0-4.4,1.5-4.5,4.8,2.8-1.8,5.4-4.1,7.4.6Z"/>
    <path class="d" d="m76.3,138.7c-1.4-1.8-2.3-2.9-2.9-4.1-.1-.3,1.2-1.2,1.8-1.8,1.3,1.4,4.6-1,4.6,2.2,0,1-1.9,2.1-3.6,3.8Z"/>
    <path class="b" d="m94.3,117c0,0-.7,0-1.4,0,0-.4,0-.8,0-1.1,1.2.2,3.3,0,3.5.6.9,2.3,1.5,4.7,1.7,7.2,0,.6-1.5,1.7-2.4,1.9-.5.1-1.8-1.2-1.9-1.9,0-2.1.3-4.2.5-6.7Z"/>
    <path class="b" d="m97.7,112.3c-4.1-3-5.3,1-7.5,2.6-.5-3.1,1-5.5,3.7-6,2.2-.4,3.6.4,3.8,3.4Z"/>
    <path class="b" d="m115.3,126.2c-2-4.8-4.6-2.4-7.4-.6.2-3.3,2.2-4.8,4.5-4.8,2.9,0,3.2,2.7,2.8,5.5Z"/>
    <path class="b" d="m115.8,115.8c0,.7-.2,1.3-.4,2.4-1.4-1.5-2.5-2.8-3.8-4.2-.9.4-1.7.9-3.3,1.6.9-1.4,1.2-2.4,1.8-2.8.7-.4,2-.4,2.6,0,1.2.8,2.1,2,3.1,3,0,0-.1-.1-.1-.1Z"/>
  </g>
  <g>
    <path class="b" d="m16.7,145.8c-5.7,2.1-9.8.8-12.2-4.2-1.6-3.3,1.1-9.5,4.7-9.6,3.3-.2,3.1-1.8,3-4.1-.6-12.4,3.6-22.6,13.4-30.5,4.4-3.6,9.6-4.9,14.9-5,14.5-.4,26.5,4.6,33.5,18,3.4,6.6,4.4,14.1,3.6,21.6-.2,2,.2,3.3,1.7,4.8,3.3,3.2,4.3,7.4,3.9,11.8-.4,4.9-5.3,8.1-10.5,6.8-2.9-.7-5.3-.3-8.1,1-12.2,5.6-24.8,7.4-36.9,0-4.1-2.5-7.1-6.7-11-10.6Zm2.8-32.4c-1.7-.7-2.9-.3-3.3,1.7-.3,1.5-1,2.9-1.2,4.4-.4,4.3-.6,8.6-.9,13-5.2.5-7.5,2.1-8.1,5.7-.5,3,.8,5.2,3.4,6.6,2.6,1.4,6.5.3,8.9-2.4,4.3,8.4,9.3,16,19.9,16.8,9.1.7,18.1.3,26.1-5-2-.8-4-1.3-6-1.4-8-.3-16-.5-23.9-.6-6.9-.1-11-5.5-8.1-11.7,1.4-3.1,4.4-6.4,7.5-7.5,5.8-2.2,12.1-3,18.3-4.4-.5-1-1-2.2-1.6-3.6-.8.2-1.4.5-2.1.6-14.1,2-20.9-3.2-21.3-15.9,0-2.1,1.8-4.9,3.6-6.1,1.2-.8,4.5.1,5.8,1.3,5.2,4.8,11.6,7.1,17.7,9.9,4.3,2,7.8,1,11.1-1.3,1.9-1.3,3.3-3.4,4.9-5-1.8-4.4-5.3-6.8-8.9-9.2-10.8-7.2-22-7-33.3-1.6-4.3,2.1-4.2,2.9-.8,6.3.1.1.1.4.2.6-1.6,2.9-3.2,5.7-4.6,8.6-1.1,2.2-2.2,2.1-3.5.2l6-8.2c-1-.7-2.1-2.1-2.9-1.9-3.4.8-5.2,7.4-3,10.2Zm33.2,16c-.1.2-.2.5-.3.7-3.2.4-6.5.4-9.6,1.3-4.9,1.4-10.4,1.4-13.8,6.3-1.8,2.7-3.1,5.4-1.9,8.4,1.2,3,4,4.4,7.2,4.7,3.8.3,7.6.2,11.4.4,5.8.3,11.5.5,17.2,1.1,4.1.4,8.2,1.6,12.3,2,3.7.3,5.5-1.5,6-5.2.9-6.3-2.2-12.1-8.2-14.1-6.6-2.2-13.5-3.7-20.2-5.5Zm-10.6-5.2c3.7,1.1,6.7.2,9.4-1.8,1-.7,2.3-1,3.4-1.6.9-.5,1.6-1.1,2.4-1.7-.8-.7-1.5-1.6-2.4-2-3.9-2-8-3.6-11.9-5.7-2.8-1.5-5.3-3.7-7.9-5.5-3.6-2.5-5.5-2.1-6.6,1.6-1.7,5.6,2.7,14.1,8.4,16,0-1.5-.4-3.1.1-4.4.5-1.2,1.9-2,3-2.9.8,1,1.9,2,2.2,3.2.3,1.5,0,3.2-.1,4.9Zm27.7,2.2c3.4.3,4.3-2.1,4.8-4,1-4.2-.1-8.1-2.7-11.2-3.9,2.2-7.6,4.1-11,6.2-.8.5-1,1.9-1.3,2.6,2.6,1.4,4.6,2.5,6.1,3.4.9-.9,2.1-2.6,2.8-2.4,3.1.7,2,3.1,1.4,5.5Zm-6.2,3.7c4.1,1.4,7.9,2.7,12.1,4.2v-9.8c-.3-.2-.5-.4-.8-.5-1.6,6.5-8.3,2.5-11.4,6.1Z"/>
    <path class="d" d="m19.4,113.3c1.3,1.8,2.4,2,3.5-.3,1.4-2.9,3-5.7,4.6-8.6,0-.2,0-.5-.2-.6-3.5-3.4-3.6-4.2.8-6.3,11.3-5.4,22.4-5.6,33.3,1.6,3.6,2.4,7.1,4.8,8.9,9.2-1.5,1.6-3,3.7-4.9,5-3.3,2.3-6.8,3.4-11.1,1.3-6.2-2.9-12.6-5.2-17.7-9.9-1.3-1.2-4.6-2.1-5.8-1.3-1.8,1.2-3.7,4-3.6,6.1.5,12.7,7.2,18,21.3,15.9.7,0,1.3-.3,2.1-.6.6,1.3,1.2,2.6,1.6,3.6-6.1,1.4-12.5,2.2-18.3,4.4-3.1,1.2-6,4.5-7.5,7.5-2.9,6.2,1.2,11.6,8.1,11.7,8,.1,16,.3,23.9.6,2,0,4,.6,6,1.4-8,5.3-16.9,5.7-26.1,5-10.6-.8-15.5-8.4-19.9-16.8-2.4,2.7-6.3,3.8-8.9,2.4-2.6-1.4-3.9-3.7-3.4-6.6.6-3.7,2.9-5.2,8.1-5.7.3-4.3.5-8.7.9-13,.1-1.5.9-2.9,1.2-4.4.4-2,1.6-2.4,3.3-1.7h0Z"/>
    <path class="d" d="m52.7,129.4c6.8,1.8,13.6,3.3,20.2,5.5,6,2,9.1,7.8,8.2,14.1-.5,3.7-2.2,5.5-6,5.2-4.1-.4-8.2-1.6-12.3-2-5.7-.6-11.5-.8-17.2-1.1-3.8-.2-7.6-.1-11.4-.4-3.2-.2-6-1.7-7.2-4.7-1.2-3,.1-5.7,1.9-8.4,3.4-4.9,8.9-4.9,13.8-6.3,3.1-.9,6.4-.9,9.6-1.3.1-.2.2-.5.3-.7Zm-17.9,16.6c1.2-.1,2.5-.2,3.7-.3,5.2-.6,10.4-1.9,15.6-1.8,5.4.2,10.8,1.9,16.3,2.7,1.8.3,5,.6,5.5-.3,1.4-2.6-.9-4.2-3.1-5.1-3.9-1.5-7.9-3.1-12.1-4-7.4-1.7-14.7-1.2-21.8,1.7-3.7,1.5-5.1,4-4.2,7.2Z"/>
    <path class="d" d="m42.1,124.2c0-1.8.5-3.4.1-4.9-.3-1.2-1.4-2.1-2.2-3.2-1,1-2.5,1.8-3,2.9-.5,1.2-.1,2.9-.1,4.4-5.7-1.9-10.1-10.4-8.4-16,1.1-3.6,3-4.1,6.6-1.6,2.6,1.9,5.1,4,7.9,5.5,3.8,2.1,7.9,3.8,11.9,5.7.9.4,1.6,1.3,2.4,2-.8.6-1.6,1.2-2.4,1.7-1.1.6-2.4.9-3.4,1.6-2.8,2-5.7,2.9-9.4,1.8Z"/>
    <path class="d" d="m69.8,126.4c.6-2.4,1.7-4.8-1.4-5.5-.7-.2-1.9,1.6-2.8,2.4-1.5-.8-3.5-1.9-6.1-3.4.3-.6.5-2.1,1.3-2.6,3.5-2.2,7.1-4.1,11-6.2,2.6,3.1,3.7,7,2.7,11.2-.4,1.9-1.4,4.3-4.8,4Z"/>
    <path class="d" d="m63.6,130.1c3.1-3.6,9.8.3,11.4-6.1.3.2.5.4.8.5v9.8c-4.2-1.5-8-2.8-12.1-4.2Z"/>
    <path class="d" d="m19.5,113.4c-2.2-2.8-.4-9.4,3-10.2.8-.2,1.9,1.3,2.9,1.9-2,2.7-4,5.4-6,8.2,0,0,0,0,0,0Z"/>
    <path class="b" d="m34.8,145.9c-.9-3.2.4-5.7,4.2-7.2,7.1-2.8,14.4-3.3,21.8-1.7,4.1.9,8.1,2.5,12.1,4,2.2.9,4.5,2.5,3.1,5.1-.5.9-3.6.6-5.5.3-5.4-.8-10.8-2.5-16.3-2.7-5.2-.2-10.4,1.1-15.6,1.8-1.2.2-2.5.2-3.7.3Zm5.6-6.3c2.2,5.6,5.7,2.4,8.9,2.6-.5-1.6-.9-2.8-1.3-4-2.6.5-4.9.9-7.6,1.4Zm16.2,2.7v-4h-6.9c.4,1.5.7,2.5,1,3.7,1.9,0,3.7.2,5.9.3Zm8.1-2.6c-2.2-.5-4.2-.9-6.4-1.4v3.9c2,.4,3.9.7,5.9,1,.2-1.3.3-2.2.5-3.5Zm1.3.6c0,1.3-.2,2.3-.3,3.4,1.9,0,4.4,2.5,5-1.7-1.4-.5-2.8-1-4.7-1.7Z"/>
    <path class="d" d="m40.4,139.6c2.7-.5,5-.9,7.6-1.4.4,1.3.8,2.4,1.3,4-3.2-.3-6.7,3-8.9-2.6Z"/>
    <path class="d" d="m56.6,142.3c-2.2-.1-4-.2-5.9-.3-.3-1.2-.6-2.2-1-3.7h6.9v4Z"/>
    <path class="d" d="m64.7,139.7c-.2,1.3-.3,2.2-.5,3.5-2.1-.4-3.9-.7-5.9-1v-3.9c2.3.5,4.3.9,6.4,1.4Z"/>
    <path class="d" d="m66,140.3c1.9.7,3.3,1.2,4.7,1.7-.5,4.2-3,1.6-5,1.7,0-1.1.2-2.1.3-3.4Z"/>
  </g>
  <path class="b" d="m204.9,97.2c0,3.4,3.1,3.8,5.3,4.8,1.5.7,3.1,1,4.6,1.7,2.1,1,3.3,2.6,2.8,5.2-.1.6,0,1.3.4,1.8,1.9,3.1,6.6,4.3,10.3,2.6,1,3.8-1.4,10-5.1,12.1-2.2,1.2-2.4,2.9-2.6,5.6,1.8-1.1,3.2-1.8,4.5-2.6,0,0,.2.1.3.2-.4.5-.8,1-1.3,1.4-.5.4-1.1.8-1.7,1.3.4,1.3.7,2.6,1.1,4.1,1.3-.2,2.6-.3,3.9-.5-3.2.4-4.4,2.9-6.2,5-1.4,1.6-4,2.8-6.2,3-7.3.6-14.7,1.2-21.4-2.6-1.2-.7-2.6-1.6-3.3-2.8-2.3-4-4.3-8.1-6.6-12.6-4.6,0-6.9-3.9-8.4-8.2-1.2-3.4-2-7.1.7-10.8,2,3,4.5,4.5,8.1,4.3-.2-5.9-2.6-10.8-5.7-15.5-.2-.3-.6-.5-.9-.6-3.1-1.6-4.2-4-2.1-6.8,3.1-4,7-7.1,12.3-7.5,3.2-.3,4.2,1.1,4,4.4,0,1,.5,2.1.8,3.2,2.8-1.2,4.8-4.1,7.6-1-4.2-.5-7.2,1.3-8.5,5.2,0-1.2-.1-2.4-.2-4.1q-3.7-4.6-9.4-1.7c2.2-3.5,5.4-2.8,9-2.4-.6-1.1-1.4-2.2-2.4-2.4-3.4-.7-11.7,4.3-12.7,7.6-.5,1.6-1.2,3.8,1.8,4.3.5-3.1,1.1-6,4.5-7.1-1.3,2.2-4,3.8-2.7,7.2,2.3,5.6,4.5,11.4,6.9,17.5,1.6.5,3.3-.3,5.2-1.6,2.7-1.8,5.8-3.1,8.8-4.3,2.2-.9,4.6-1.4,7.4-2.2-2.3-1.3-3.5-3.3-6-1.4-.8.6-2.4.3-3.7.4.3-1.2.6-2.5,1-3.7.1-.4.6-.7.8-1-.9-1.1-1.8-2.2-2.6-3.2.8.6,1.6,1.2,2.5,1.7.5.3,1.2.2,1.7.4,0-.6,0-1.3-.2-1.7-.5-.8-1.2-1.5-1.7-2.3-1.1-2-2.1-1.8-3.3-.3.4.9.7,1.7,1,2.4-1.3-.6-2.4-2-4.1-.7-.2.1-1.1-.7-1.7-1.1,1-.2,2.1-.2,2.9-.7,4-2.7,4-2.7,6.9,1.1.3.4.5.8.9,1.2,1.4,1.5,1.1,2.7-.4,3.9-1,.8-1.9,1.8-2.9,2.7l.7.9c1.8-1.1,3.6-2.2,5.4-3.2Zm13.7,32.6c-2.1.5-3.7,1.5-3.8,3.2-1-.6-2.1-1.3-3.2-2-.7-.4-1.9-.6-2.3-1.2-1.5-2.4-3.4-1.3-5.2-.9-2.2.6-4.3,1.3-6.3,2-.3-.9-.4-1.7-.8-1.9-2.6-1.4-5.9-.1-7,2.7-1,2.6,0,4.5,1.9,6.2,5.4,4.7,20.9,6.1,27.1,2.4,2.6-1.5,4-4.8,2.7-7.2-.7-1.4-2.2-2.3-3.3-3.5.3-.2.8-.2,1-.5,2.5-3.1,2.3-11.9-.6-14.5-.7-.6-2.3-.8-3.3-.5-3,.9-3.6,3.6-3.6,6.3,0,2.8-.4,5.7,3.2,7,1.3.4,2.3,1.5,3.5,2.3Zm-8-10.4c.2-.1.5-.3.7-.4-1.4-2.6-2.4-5.5-4.2-7.7-2.3-2.7-6.2-2.2-8.1.7-2.7,4-3.7,8.3-1.9,13,1.3,3.6,1.9,3.9,5.7,3,.8-.2,1.7-.4,2.6-.4,3,0,4.1-1.7,4.6-4.3.3-1.3.4-2.7.6-4.1Zm5.7-10.5c.5-2.9-.5-4.6-3.8-5-3-.3-6.2-.2-9.2.5-3.7,1-7.3,2.6-10.8,4.3-.8.4-1,2-1.5,3.1.9-.2,1.9-.3,2.7-.8,7.2-4.2,14.5-6.8,22.5-2.1Z"/>
  <path class="d" d="m191.5,91.5c1.3-3.9,4.3-5.7,8.5-5.2.1.3.3.6.4.9,1.3,1.8,2.5,3.7,3.8,5.4,1.2,1.5,1.5,3,.6,4.7,0,0,.1,0,.1,0-1.8,1.1-3.6,2.2-5.4,3.2l-.7-.9c1-.9,1.9-1.9,2.9-2.7,1.5-1.2,1.8-2.5.4-3.9-.3-.4-.6-.8-.9-1.2-3-3.8-2.9-3.8-6.9-1.1-.8.5-1.9.5-2.9.7,0,0,0,0,0,0Z"/>
  <path class="b" d="m204.8,97.3c1-1.7.6-3.2-.6-4.7-1.4-1.7-2.6-3.6-3.8-5.4,2,2.5,4.1,4.9,5.9,7.5.2.4-1,1.7-1.5,2.6Z"/>
  <path class="d" d="m197.1,93.1c.8,1,1.7,2.1,2.6,3.2-.3.3-.7.6-.8,1-.4,1.2-.6,2.5-1,3.7,1.3,0,2.9.3,3.7-.4,2.5-2,3.8,0,6,1.4-2.9.8-5.2,1.3-7.4,2.2-3,1.2-6.1,2.5-8.8,4.3-1.9,1.3-3.6,2.1-5.2,1.6-2.4-6.1-4.5-11.8-6.9-17.5-1.4-3.3,1.3-4.9,2.7-7.2h-.1q5.8-2.8,9.4,1.8c0,1.8.1,3,.2,4.1,0,0,0,0,0,0,.6.4,1.6,1.2,1.7,1.1,1.7-1.3,2.8.1,4.1.7h0Z"/>
  <path class="d" d="m218.5,129.7c1.1,1.1,2.6,2.1,3.3,3.5,1.3,2.4-.2,5.7-2.7,7.2-6.2,3.7-21.7,2.3-27.1-2.4-2-1.7-2.9-3.6-1.9-6.2,1.1-2.8,4.4-4.1,7-2.7.4.2.4,1,.8,1.9,2-.6,4.2-1.4,6.3-2,1.8-.5,3.7-1.5,5.2.9.4.6,1.5.8,2.3,1.2,1.1.6,2.2,1.3,3.2,2,0-1.7,1.7-2.7,3.8-3.2h0Zm-20,3c-.8,1.5-1.4,2.5-1.7,3.2,1.9,1.1,3.7,2.3,5.6,3,1.9.7,4,.9,6,1.4-8.6-3.3-9.2-3.7-9.8-7.6Z"/>
  <path class="d" d="m210.6,119.4c-.2,1.4-.3,2.7-.6,4.1-.5,2.5-1.6,4.4-4.6,4.3-.9,0-1.7.2-2.6.4-3.8.9-4.4.6-5.7-3-1.7-4.7-.8-9.1,1.9-13,1.9-2.9,5.8-3.4,8.1-.7,1.8,2.2,2.8,5.1,4.2,7.7-.2.1-.5.3-.7.4Zm-7.3,2.6c-1.1-1.3-1.9-2.3-2.7-3.3-.6,1-1.7,2.1-1.6,3.1.1,1.3,1.2,2.4,1.9,3.6.7-1,1.4-2,2.4-3.4Z"/>
  <path class="d" d="m218.6,129.8c-1.2-.8-2.2-1.8-3.5-2.3-3.6-1.3-3.3-4.2-3.2-7,0-2.7.6-5.4,3.6-6.3,1-.3,2.6-.2,3.3.5,2.9,2.7,3.2,11.4.6,14.5-.2.3-.7.3-1,.5,0,0,0,0,0,0Zm-3.3-8.5c-2,1.5-2.1,3.2-1.1,5,.2.3,1.3.4,1.5.2,1.4-1.7,1.2-3.3-.4-5.2Z"/>
  <path class="d" d="m216.3,108.9c-8-4.6-15.3-2.1-22.5,2.1-.8.5-1.8.5-2.7.8.5-1.1.7-2.7,1.5-3.1,3.5-1.7,7.1-3.3,10.8-4.3,2.9-.7,6.2-.8,9.2-.5,3.2.3,4.2,2.1,3.8,5Z"/>
  <path class="d" d="m182,85.5c-3.4,1.1-4,4.1-4.5,7.1-3-.5-2.3-2.6-1.8-4.3,1-3.3,9.3-8.3,12.7-7.6,1,.2,1.8,1.3,2.4,2.4-3.5-.4-6.8-1.1-9,2.4,0,0,0,0,0,0Z"/>
  <path class="d" d="m197.2,93.2c-.3-.8-.7-1.5-1-2.4,1.1-1.5,2.2-1.6,3.3.3.5.8,1.2,1.5,1.7,2.3.3.5.2,1.2.2,1.7-.6-.1-1.2,0-1.7-.4-.9-.5-1.7-1.1-2.5-1.7,0,0,0,.1,0,.1Z"/>
  <g>
    <path class="b" d="m239.5,157.3c5.3-.5,9.7-1.2,14.2-1.2,5.5,0,12.2,7.4,13.5,14.1,2.2,11.5.8,22.8-2.2,33.9-.3,1.2-1.3,2.7-2.3,3.3-8.2,4.9-16.8,8.5-26.5,7.8-12.1-.8-24.2-1.5-36.3-2.9-8.4-1-16.2-3.9-21.6-11.1-1.3-1.7-2.9-3.7-3.1-5.6-1-9.3-1.6-18.8,1.8-27.8,5.7-15,16.1-19.9,32.2-15.5.4.1.9.2,1.3.4,4.6,2.2,8.5,3.3,13-1.3,3.7-3.7,9-2.3,12.6,1.7,1.4,1.5,2.6,3.2,3.4,4.2Zm-2.2,16.9c3,.7,5.7,1.5,8.5,2,.5.1,1.5-.3,1.7-.7.3-.5.2-1.5-.1-2-1-1.7-2.2-3.2-3.3-4.8-2.9-4.6-5.4-9.5-8.7-13.8-4.7-6.2-11-5.6-15.1,1.2-2.3,3.9-4,8.1-6.6,11.7-1.7,2.4-4.7,3.9-2.2,7.4.3.4-.4,1.7-.9,2.5-3.8,7.6-3.6,8.3,3.1,13.2,1.7,1.2,3,3,4.5,4.5-.4.4-.8.8-1.2,1.2-.9-1.4-1.8-2.9-2.7-4.4-2,1.5-3.5,2.3-4.5,3.5-.5.7-.7,2.5-.1,3.1,2,2.5,4.6,4.5,6.6,7,1.6,2,3.5,2.2,5.6,1.5,6.1-1.9,12.1-1.8,18,.4,1.6.6,2.7.5,3.2-1.2,1.1-3.4,2.7-6.4,6.2-7.9.3-.1.3-.8.6-1.6-1.9-.2-3.6-.7-5.3-.6-4.6.1-9.3.3-13.9.7-3.6.3-7.6-.4-9.4,4.9-.3-6.5,3.5-12.6,7-12.9-1.4,2.3-3,4.7-4.6,7.3,6.5-.5,12.6-1,19-1.5-1-2.2-1.8-4-2.6-5.8l.8-.4c1,1.6,2.1,3.3,3.1,4.9,7.6-6.1,7.8-10.7.9-15.7-.2,1.6-.2,3.3-.9,4.7-.6,1.1-2,2.2-3.2,2.4-.8.1-2.5-1-2.8-1.9-1-3.3-1.5-6.6-2.2-10,0-.5.3-1.1.5-1.7.2,0,.4,0,.6,0,.2,1,.4,2.1.5,2.7Z"/>
    <path class="d" d="m237.3,174.1c-.1-.6-.3-1.7-.5-2.7-.2,0-.4,0-.6,0-.2.6-.6,1.2-.5,1.7.6,3.3,1.2,6.7,2.2,10,.3.9,2,2.1,2.8,1.9,1.2-.2,2.6-1.3,3.2-2.4.7-1.4.6-3.1.9-4.7,6.9,5,6.7,9.6-.9,15.7-1-1.6-2.1-3.3-3.1-4.9l-.8.4c.8,1.8,1.6,3.6,2.6,5.8-6.4.5-12.4,1-19,1.5,1.6-2.6,3.2-5,4.6-7.3-3.5.3-7.3,6.5-7,12.9,1.8-5.4,5.9-4.7,9.4-4.9,4.6-.4,9.3-.6,13.9-.7,1.7,0,3.4.4,5.3.6-.3.8-.3,1.5-.6,1.6-3.5,1.5-5.1,4.5-6.2,7.9-.6,1.8-1.6,1.8-3.2,1.2-5.9-2.3-12-2.3-18-.4-2.1.7-3.9.5-5.6-1.5-2-2.5-4.6-4.6-6.6-7-.5-.6-.4-2.4.1-3.1,1-1.2,2.5-2,4.5-3.5.9,1.5,1.8,3,2.7,4.4.4-.4.8-.8,1.2-1.2-1.5-1.5-2.8-3.3-4.5-4.5-6.7-4.9-7-5.6-3.1-13.2.4-.8,1.2-2.1.9-2.5-2.4-3.6.5-5,2.2-7.4,2.6-3.6,4.3-7.9,6.6-11.7,4.1-6.8,10.3-7.4,15.1-1.2,3.3,4.3,5.8,9.2,8.7,13.8,1,1.6,2.3,3.1,3.3,4.8.3.5.4,1.5.1,2-.2.4-1.2.8-1.7.7-2.7-.6-5.5-1.3-8.5-2Zm-21-.6c.8,2.4,1.1,4.6,2.2,6.4,1.1,1.9,2.7,4.3,4.6,4.9,1.5.5,4.7-.8,5.4-2.3,1.8-3.4,2.7-7.2,3.9-10.9-1.4,3.5-4,3.3-7,2.7-3.2-.6-6.4-.6-9.1-.9Z"/>
    <path class="b" d="m216.3,173.5c2.7.2,5.9.3,9.1.9,3,.5,5.5.8,7-2.7-1.2,3.7-2.1,7.6-3.9,10.9-.8,1.4-4,2.8-5.4,2.3-1.9-.6-3.5-2.9-4.6-4.9-1.1-1.8-1.4-4.1-2.2-6.4Z"/>
  </g>
  <g>
    <path class="b" d="m132.6,169.4c2.9-3.1,2.9-4.3-.6-7-3-2.3-6.4-4.2-9.7-6.1-.6-.4-1.6,0-2.5-.2-.8-.1-1.9-.3-2.2-.8-.4-.8-.4-2.1,0-2.7.4-.6,2.1-1.2,2.5-.9,2.8,2.4,5.9.2,8.8,1.3-.7-4.1-2.6-6-5.9-6.7-.7-.2-1.7-1.3-1.7-2,0-.9.7-2,1.5-2.6.5-.4,2.2,0,2.3.3.7,2.5,2.9,2.3,4.7,2.9,3,1,5.9,2.1,9.3,3.3,0-4.3,0-8.4,0-12.4,0-.6-.9-1.2-1.1-1.9-.2-.9-.4-2.2,0-2.9.4-.6,1.9-1,2.5-.7.7.4.9,1.6,1.2,2.5.3.8.3,1.7.7,2.3,1.7,2.3,3.5,4.5,5.9,7.6-.3-4.8,3-8.1,1.8-12.6-.2-.8.7-2.2,1.4-2.9.5-.5,2.1-.5,2.6,0,.6.6,1.2,2.2.9,2.8-2.5,4.3-.4,8.7-.4,13.1,0,3.5,1.4,5.6,5.2,6.3,2.6.5,5.1,2.1,7.5,3.4,3.2,1.8,4.8,4.9,5.4,8.5.1.9.3,1.8.3,2.7-.2,5.6,1.3,9.9,6.8,12.8,3.4,1.8,6,5.4,6.5,9.8.3,3.2-1.5,6-4.6,7,4.4-3.5,5-7.4,1.7-11.8-2.6-3.5-5.7-6.6-10-8.1-2.3-.8-4.7-1.5-6.9-2.5-2.6-1.3-3.5-1.1-4.4,1.6-.4,1-.8,2-1.2,2.9.8.4,1.5.8,2.6,1.4-.7,0-.9.2-1.1.1-1.7-.5-3.8-1.6-4.4.9-.5,2.3,1.4,3,3.4,3.6,2.4.7,5,1.4,7,2.8,2.5,1.8,4.5,4.4,6.7,6.6-1.3-.8-2.6-1.5-4.2-2.5,1.3,2,2.4,3.8,3.5,5.5,5.2,8.3,1.6,15.9-8.2,17-4.2.5-8.5.5-11.9-2.8,0,0,.1-.2.2-.2,6.3,3.4,12.5,3.1,18.4-1,2.9-2,3.9-4.7,2.4-8-1.3-2.8-2.8-5.5-4.5-8-2.2-3.3-3.1-3.3-6.8-1.7-.4.2-.7.3-1.1.5-8,3.5-15.4.3-16.3-8,0-.7-1.1-1.2-2.2-2.4,1.7-.5,3.6-1.1,5.4-1.6,0,.3.2.6.2.8-1,.2-2,.3-3,.5,3.1,7.2,17.6,11.8,22.5,6.7-.6-.3-1.2-.7-1.8-1-2.1-.9-4.1-1.9-6.2-2.4-3.6-.9-5.1-2.7-4.5-5.8-1.1-.7-2.6-1.1-3.1-2.1-1.4-2.4-3.8-2.7-6-3.4-1.7-.5-3.5-.9-5.2-1.1-3.5-.4-6.9-.6-10.4-.9h0Zm22.6,19.7c1.5,1.7,3.5,1.6,5.5-.4-2-.9-3.9-1.7-5.6.5.7-2.8-1.9-2.4-3.2-3.1-.2-.1-.9.7-1.4,1,1,.8,2,1.7,3.1,2.4.3.2,1-.2,1.6-.4Zm-3-28c-.5,3-1.4,6,.4,8.9q.3-6.8,2.8-7.8c-.1,1.6-.3,2.8-.4,4.5,1.2,0,2.8.3,4.4.2.4,0,1.1-1.1,1-1.7-.3-2.1-.7-4.3-3-5.4-2.3-1.1-3.7.2-5.3,1.4,1.1-3.6,4.1-2.4,6.6-2.4-1.2-3.8-3-5.4-5.9-5.4-3.1,0-4.5,2.1-5.4,4.7-.5,1.3-.8,2.7-1.1,4-.2.6-.3,1.3-.5,1.9-.6-.4-1.1-.9-1.7-1.3,1.3-3,2-6.4,4-8.9,4.3-5.4,9.5-4.2,11.7,2.4.8,2.4,1.5,4.9,2.4,7.3.4,1.2,1.3,2.2,1.9,3.4.7-1,1.4-1.9,2.2-3,.2.9.4,1.7.7,3,1.1-3,2.1-5.5,3-8,.1-.4-.3-1.1-.6-1.6-3-5.1-11.1-8.8-16.7-7.4-2.7.7-5.6,1.8-7.6,3.7-3.1,2.9-6.2,6.2-8.2,9.9-2,3.7-1.2,4.5,2.9,5.1,3.6.5,7.1,1,9.8,1.4.9-3.3,1.7-6,2.5-8.8Zm9.4,10.3c-1.7-1.1-2.8-2.3-3.9-2.3-.8,0-2.5,1.9-2.3,2.3.6,1.3,1.9,2.2,2.9,3.3.9-.9,1.8-1.7,3.3-3.2Zm7.3-6.4c.3,0,.6,0,.9,0,.3,1.2.5,2.4.8,3.8.1,0,1.1-.4,1.1-.6,0-1.7-.4-3.4-.6-5.1-.3,0-.7,0-1,0-.4.7-.8,1.4-1.3,2Zm-13.5-35.9c-1.3-.7-1.9-1.4-2.6-1.4-.4,0-1.2,1-1.2,1.5,0,.5.9,1.5,1.3,1.5.7,0,1.3-.8,2.5-1.7Z"/>
    <path class="d" d="m175.3,191c-2.2-2.2-4.2-4.8-6.7-6.6-2-1.4-4.6-2.2-7-2.8-2-.6-3.9-1.4-3.4-3.6.6-2.6,2.7-1.4,4.4-.9.2,0,.4,0,1.1-.1-1.1-.6-1.8-1-2.6-1.4.4-1,.8-1.9,1.2-2.9,1-2.7,1.9-2.8,4.4-1.6,2.2,1.1,4.6,1.7,6.9,2.5,4.3,1.5,7.4,4.5,10,8.1,3.3,4.4,2.6,8.3-1.7,11.8-2.8.9-4.6-1-6.6-2.4Z"/>
    <path class="b" d="m154.5,208.2c-1.3-1.1-3.2-2-3.9-3.4-2.1-4-3.7-8.2-5.7-12.3-1.8-3.5-3.9-6.8-6-10.1-.3-.5-1.3-.6-2-.8-4.6-1.4-8.9-4.8-6.7-10,.4-.9,1.6-1.5,2.4-2.3,0,0,0,0,0,0-2.7,4.6-2.4,7.2,1.4,9.9,1.1.8,2.8,1.2,4,1,1.2-.2,2.3-1.4,3.9-2.6-1,1.5-1.6,2.6-2.3,3.7,1.4,1.9,4.3,2.7,3.5,5.9.3.1.6.2.9.3.2-.7.4-1.4.6-2.2.3.1.5.2.8.4-.3,8.8,3.5,15.9,9.3,22.1,0,0-.1.2-.2.2Z"/>
    <path class="d" d="m154.7,208c-5.7-6.2-9.5-13.3-9.3-22.1-.3-.1-.5-.2-.8-.4-.2.7-.4,1.4-.6,2.2-.3-.1-.6-.2-.9-.3.8-3.2-2.1-4-3.5-5.9.7-1.1,1.3-2.1,2.3-3.7-1.7,1.1-2.7,2.4-3.9,2.6-1.3.2-2.9-.3-4-1-3.9-2.7-4.1-5.3-1.4-9.9,3.5.3,7,.5,10.4.9,1.8.2,3.5.6,5.2,1.1,2.2.6,4.6.9,6,3.4.6,1,2,1.4,3.1,2.1-.6,3.1.9,4.8,4.5,5.8,2.2.6,4.2,1.6,6.2,2.4.6.3,1.2.7,1.8,1-4.9,5.1-19.3.4-22.5-6.7,1-.2,2-.3,3-.5,0-.3-.2-.6-.2-.8-1.9.6-3.8,1.1-5.4,1.6,1.1,1.1,2.1,1.7,2.2,2.4.9,8.3,8.3,11.5,16.3,8,.4-.2.7-.3,1.1-.5,3.7-1.7,4.6-1.6,6.8,1.7,1.7,2.5,3.2,5.2,4.5,8,1.5,3.3.5,6-2.4,8-5.9,4.1-12.1,4.3-18.4,1Zm-14.7-32.4c-.8-3.3-3.3-5.1-5.6-4.3-2.1.7-3,2.3-2.1,4.9.8-1.9.4-4.5,3.3-3.8-.4,1.4-.8,2.6-1.2,3.9.2,0,.5.1.7.2,1.7-3.8,2.2-3.9,4.9-.9Zm18.7,18.7c-2.7-.8-5.7-1.6-8.5-2.4,2.3,2.6,6.4,3.7,8.5,2.4Z"/>
    <path class="d" d="m152.2,161.1c-.8,2.8-1.6,5.5-2.5,8.8-2.7-.4-6.3-.9-9.8-1.4-4.1-.6-4.9-1.4-2.9-5.1,2-3.7,5.1-7,8.2-9.9,2-1.8,4.9-3,7.6-3.7,5.6-1.5,13.7,2.3,16.7,7.4.3.5.7,1.2.6,1.6-.9,2.5-1.9,5-3,8-.3-1.3-.5-2.2-.7-3-.8,1.1-1.5,2.1-2.2,3-.7-1.1-1.5-2.2-1.9-3.4-.9-2.4-1.6-4.9-2.4-7.3-2.2-6.5-7.4-7.8-11.7-2.4-2,2.5-2.7,5.9-4,8.9.6.4,1.1.9,1.7,1.3.2-.6.3-1.3.5-1.9.4-1.3.6-2.7,1.1-4,.9-2.5,2.3-4.7,5.4-4.7,3,0,4.8,1.7,5.9,5.4-2.5,0-5.5-1.2-6.6,2.4h.1Z"/>
    <path class="d" d="m152.1,161.2c1.6-1.2,3-2.5,5.3-1.4,2.3,1.1,2.7,3.2,3,5.4,0,.5-.6,1.6-1,1.7-1.6.1-3.2,0-4.4-.2.2-1.7.3-2.9.4-4.5q-2.5,1-2.8,7.8c-1.8-2.9-.8-5.9-.4-8.9,0,0-.1.1-.1.1Z"/>
    <path class="d" d="m161.6,171.4c-1.5,1.5-2.4,2.4-3.3,3.2-1-1.1-2.2-2-2.9-3.3-.2-.4,1.5-2.3,2.3-2.3,1.1,0,2.1,1.2,3.9,2.3Z"/>
    <path class="d" d="m155.2,189.1c-.5.1-1.3.6-1.6.4-1.1-.7-2.1-1.6-3.1-2.4.5-.4,1.2-1.1,1.4-1,1.3.8,3.9.3,3.2,3.1h0Z"/>
    <path class="d" d="m155.1,189.2c1.7-2.1,3.6-1.4,5.6-.5-2,2-4,2.1-5.6.4,0,0,0,0,0,0Z"/>
    <path class="d" d="m168.9,165c.4-.7.8-1.4,1.3-2,.3,0,.7,0,1,0,.2,1.7.5,3.4.6,5.1,0,.2-1,.5-1.1.6-.3-1.4-.6-2.6-.8-3.8-.3,0-.6,0-.9,0Z"/>
    <path class="d" d="m155.4,129.1c-1.2.9-1.8,1.6-2.5,1.7-.4,0-1.2-.9-1.3-1.5,0-.5.8-1.5,1.2-1.5.7,0,1.4.7,2.6,1.4Z"/>
    <path class="b" d="m140,175.5c-2.7-3-3.2-2.8-4.9.9-.2,0-.5-.1-.7-.2.4-1.3.8-2.5,1.2-3.9-2.9-.7-2.5,1.9-3.3,3.8-.9-2.6,0-4.2,2.1-4.9,2.3-.8,4.8,1,5.6,4.3Z"/>
    <path class="b" d="m158.7,194.2c-2.1,1.3-6.2.2-8.5-2.4,2.8.8,5.8,1.6,8.5,2.4Z"/>
  </g>
  <path class="b" d="m198.6,132.7c.6,3.9,1.2,4.3,9.8,7.6-2-.4-4.1-.7-6-1.4-1.9-.7-3.7-2-5.6-3,.4-.7.9-1.7,1.7-3.2Z"/>
  <path class="b" d="m203.4,122c-1,1.4-1.7,2.4-2.4,3.4-.7-1.2-1.8-2.4-1.9-3.6-.1-1,1-2.1,1.6-3.1.8,1,1.6,2,2.7,3.3Z"/>
  <path class="b" d="m215.3,121.3c1.6,1.8,1.8,3.5.4,5.2-.2.2-1.3.1-1.5-.2-1-1.8-1-3.5,1.1-5Z"/>
  <g>
    <path class="b" d="m71.6,147.4c4.9-5,11-7,17.8-6.8,3.1,0,6.3,4.3,7.2,8.8.3,1.4,1.5,2.5,1.9,3.9.8,2.7,1.3,5.4,2,8.8.2,0,1.2.5,2.3.9,0,.2,0,.4,0,.7l-4-.2c0,.2-.2.5-.3.7,1.9,1,3.9,2,5.8,2.9-1,3.8-2.6-.8-3.9.4.3.6.7,1.2,1.5,2.6-2.3-1.3-3.8-2.1-5.3-2.9-.3.2-.6.4-.8.5.9,2.5,1.7,4.9,2.8,7.9,2.9-2.2,5.3-4.2,8-6.3-1-.9-1.7-1.6-2.4-2.3,0-2.8,2.7-5.6,5.3-5.5.5,0,1.3.3,1.5.7,1.1,2.8,2.2,5.6,3,8.5.1.5-1.1,1.9-1.8,2-1.4.2-2.9-.2-4.4-.4,0-.4,0-.7-.1-1.1-2,1.4-3.9,2.8-6.6,4.7,6.5-.2,10.7,2.1,12.6,7.6,1.2,3.5.7,6.8-2.3,9.3.3-1.1.7-2.1,1-3.2,2.1-6.1-2.2-12.3-8.6-12.5-2,0-3.6.3-4.1,3-.9,4.6-5.3,7.9-9.7,7-3.5-.8-6.5,0-9.7,1-4.8,1.4-9.2.2-13-2.8-.7-.5-.7-1.9-1.1-3,1-.2,2.3-.8,3.1-.4,1.5.7,2.9,1.9,4.2,2.9,3.3,2.5,6.2,2.6,8.9,1-.2-2.5-.3-4.6-.4-6.6,1.9.1,3.9.3,5.8.4,0,.4-.1.9-.2,1.3-.8-.2-1.6-.6-2.4-.7-.9,0-1.9,0-2.8.1.3.9.3,2,.9,2.8,3,3.9,10.9,4.1,13.9.1,1.1-1.5,1.4-3.9,1.1-5.7,0-.7-2.9-1-4.5-1.4-2.3-.6-4.6-.9-6.8-1.7-.6-.2-.7-1.7-1.1-2.5.8-.2,1.6-.4,2.4-.6.4-2.4.7-4.9,1.1-7.5-3.7-1.7-7.3-2.4-11.1-.8-.9.4-2.2.6-2.9.2-2.5-1.2-4.1,0-5.6,1.7h.1c-1.6,1.9-3.1,3.9-4.4,5.6v-2.6c-1.1.7-1.9,1.3-2.8,1.9-4.8,3.4-4.9,3.9-3.3,9.5.3,1.1.4,2.2.7,4.2-2.3-1-3.7-1.8-5.2-2.2-3-.9-5.1.8-4.1,3.8.7,2.1,2.4,4.6,4.3,5.3,1.8.7,4.5-.5,6.8-.8.6,3.9,7.9,8.1,11.7,5.6,2.9,7.7,9.6,7.4,16,7.3,6.9-.1,12.1-3.4,15.1-10-.3,1.5-.5,3-1,5.3,3-1.7,5.5-3.2,7.9-4.7-.7.8-1.3,2.1-2.2,2.5-6.2,2.7-12.2,6.1-18.7,7.5-4.3,1-9.9.3-13.6-1.9-3.8-2.2-7.8-3.9-11.6-5.9-.9-.5-2-.9-2.6-1.7-1.6-1.9-3.5-2-5.8-1.9-1.8.1-4-.5-5.3-1.6-2.8-2.3-3.6-6.5-2.2-8.8,1.2-2,3.2-2.2,8.2-.8-.3-3-1.4-4.7-4.9-4.8-3.2-.1-5.2-2.5-5.9-5.5-.7-2.9-.2-5.7,2.4-7.5,2.4-1.6,5-3.3,7.7-3.7,4.1-.6,6.2-3,8.6-5.7,1.8-2.1,4.2-3.8,6.3-5.7-4.1,4.8-8.1,9.7-12.1,14.5-.2-.1-.3-.2-.5-.4.1-.6.3-1.2.4-1.9-4.8,0-10.3,4.1-10.9,8-.5,3.7.9,5.9,3.6,6.7,5.8-4.7,11.1-9.3,16.8-13.4,3.1-2.3,5-6,10.5-5.8,4.9.2,9.9-2.9,14.9-4.7-.7-6.1-3.6-8.8-10.2-8-3.1.4-6.1,2-9.1,3.1-1.2.5-2.4,1.2-3.6,1.8Zm18.8,17.5c0,1.3-.1,3.5,0,3.6,4,.5,2.3,3.8,2.9,6h2.4c-1.3-3.4.9-8.3-5.3-9.6Zm-10.5-7c.1.4.3.8.4,1.3,5.7-1.4,11.8-7.8,16.9.7.5-3.5-1.1-5.8-5.3-5.3-4.1.4-8,2.2-12,3.3Zm31.1,14.6c3-3.2.4-5.3-.5-7.9-1.4.9-2.4,1.6-3.1,2,1.2,2,2.2,3.6,3.5,5.9Z"/>
    <path class="d" d="m111.5,192.7c-2.5,1.5-5,2.9-7.9,4.7.4-2.3.7-3.8,1-5.3-3.1,6.6-8.2,9.9-15.1,10-6.3,0-13.1.4-16-7.3-3.8,2.5-11.1-1.7-11.7-5.6-2.3.4-4.9,1.6-6.8.8-1.9-.8-3.5-3.2-4.3-5.3-1-3,1.1-4.7,4.1-3.8,1.5.5,2.9,1.2,5.2,2.2-.3-1.9-.4-3.1-.7-4.2-1.6-5.5-1.4-6,3.3-9.5.8-.6,1.7-1.1,2.8-1.9v2.6c1.3-1.7,2.9-3.7,4.4-5.7-.9,1.6-1.8,3.2-2.7,4.7,4.2-2.6,5.6-2,8.2,3.5-2.1.3-4.3.6-7,.9,3.9.7,7.1,1.4,10.3,1.8,1.5.2,3.8.2,4.6-.7.9-1.2.6-3.3.9-5-.4,0-.8,0-1.2-.1-.1.5-.2,1-.4,1.5-.4,1-.7,2.6-1.4,2.8-.9.2-2.3-.4-3-1.2-1.3-1.3-2.1-3.1-3.4-4.4-1.5-1.4-3.4-2.5-5.1-3.7,1.6-1.6,3.1-2.9,5.6-1.7.8.4,2.1.1,2.9-.2,3.8-1.7,7.4-.9,11.1.8-.4,2.6-.8,5.1-1.1,7.5-.8.2-1.6.4-2.4.6.3.9.5,2.3,1.1,2.5,2.2.8,4.6,1.2,6.8,1.7,1.6.4,4.4.7,4.5,1.4.3,1.8,0,4.3-1.1,5.7-2.9,4-10.8,3.8-13.9-.1-.6-.7-.6-1.8-.9-2.8.9,0,1.9-.2,2.8-.1.8,0,1.6.4,2.4.7,0-.4.1-.9.2-1.3-1.9-.1-3.9-.3-5.8-.4.1,2,.2,4.1.4,6.6-2.6,1.6-5.6,1.5-8.9-1-1.4-1-2.7-2.3-4.2-2.9-.8-.4-2,.3-3.1.4.3,1,.4,2.4,1.1,3,3.9,3,8.3,4.2,13,2.8,3.2-.9,6.2-1.8,9.7-1,4.4.9,8.7-2.4,9.7-7,.5-2.7,2.1-3,4.1-3,6.4.2,10.6,6.4,8.6,12.5-.4,1.1-.7,2.1-1,3.2,0,0,.1-.1.1-.1Zm-33.3-8.7c0-.1,0-.3.1-.4-2.1-1.3-4.3-2.5-6.4-3.8-2.7-1.5-5-1.4-5.9-.4,3.8,1.5,8,3,12.2,4.6Z"/>
    <path class="d" d="m71.6,147.4c1.2-.6,2.3-1.3,3.6-1.8,3-1.1,6-2.7,9.1-3.1,6.6-.8,9.5,1.8,10.2,8-5.1,1.7-10.1,4.9-14.9,4.7-5.4-.2-7.3,3.5-10.5,5.8-5.6,4.1-10.9,8.7-16.8,13.4-2.7-.9-4.1-3-3.6-6.7.6-4,6.1-8.1,10.9-8-.1.6-.3,1.2-.4,1.9.2.1.3.2.5.4,4-4.8,8.1-9.7,12.1-14.5,0,0-.1.1-.1.1Z"/>
    <path class="d" d="m104.3,167c.7.7,1.4,1.4,2.4,2.3-2.7,2.1-5.1,4-8,6.3-1-3-1.9-5.4-2.8-7.9.3-.2.6-.4.8-.5,1.5.8,3,1.7,5.3,2.9-.8-1.4-1.2-2.1-1.5-2.6,1.2-1.3,2.9,3.3,3.9-.4,0,0,0,0,0,0Z"/>
    <path class="d" d="m90.4,164.9c6.2,1.3,3.9,6.2,5.3,9.6h-2.4c-.6-2.2,1.1-5.5-2.9-6-.2,0,0-2.2,0-3.6Z"/>
    <path class="d" d="m79.9,157.9c4-1.2,7.9-2.9,12-3.3,4.1-.4,5.7,1.8,5.3,5.3-5.1-8.5-11.1-2.1-16.9-.7-.1-.4-.3-.8-.4-1.3Z"/>
    <path class="d" d="m111,172.5c-1.4-2.2-2.3-3.9-3.5-5.9.6-.4,1.7-1.1,3.1-2,.9,2.5,3.5,4.7.5,7.9Z"/>
    <path class="b" d="m69.6,164.8c1.7,1.2,3.6,2.3,5.1,3.7,1.3,1.3,2.1,3.1,3.4,4.4.7.7,2.1,1.4,3,1.2.6-.2.9-1.8,1.4-2.8.2-.5.3-1,.4-1.5.4,0,.8,0,1.2.1-.2,1.7,0,3.9-.9,5-.7.9-3,.8-4.6.7-3.2-.4-6.4-1.1-10.3-1.8,2.7-.4,4.9-.7,7-.9-2.6-5.5-4-6-8.2-3.5.9-1.6,1.8-3.2,2.7-4.7,0,0-.1.1-.1.1Z"/>
    <path class="b" d="m78.1,184c-4.2-1.6-8.4-3.2-12.2-4.6.9-1,3.2-1.1,5.9.4,2.2,1.2,4.3,2.5,6.4,3.8,0,.1,0,.3-.1.4Z"/>
  </g>
  <g>
    <path class="b" d="m194.1,77.1c-3.7-1.5-5.4-6.5-3.5-10.1,3.6,1.8,6.7.9,7.5-2.7,1.7-7.5,5.9-12.6,13.2-15.4-.7-2.3-.1-3.9,2.6-4.4.5,0,1-1.1,1.3-1.7,1.5-3.1,4.9-4.5,8.8-3.6,4,.9,5.9,3.2,5.7,7,0,1.4-.3,2.8-.5,4.2,3.4,1.9,3.4,2.2.8,4.7,4.8,6.2,5.3,13.2,3.3,20.5-.2.5-.2,1.2,0,1.7,1,3.6.4,5.5-3,6.6-3.7,1.3-7.6,2.5-11.4,3-7.7.9-13.3-2.9-17.7-8.9-.4-.5-.7-1-1-1.5,0,0-.2,0-.2.5-2,0-3.9,0-5.9,0,1.6-.4,3.4-.3,4.7-1.2,2.8-1.9,4.7-4.6,4.9-8.3.1-2.6.5-3,2.2-3.5-.9,2.8-1.6,5.8-2.9,8.5-2,4-2.3,3.9.8,7.2,1.1,1.2,2.2,2.3,3.5,3.3,4.3,3.5,12.2,4.2,17.5,1.2-4.9.3-9.2.5-12.7-2.7,0,0,.1-.2.2-.2,2.9,1.4,5.8,2.7,9.5,2-2.7-1.9-4-4-3-7,1.4-4.3,5.1-3.2,8.4-3.5.7-2.4.2-5.4,3.2-7,.8,2.5,2.1,4.7-1.3,5.7,1,1.7,1.9,3.2,2.7,4.7,2.5-6.6,2.4-12.7-1.1-18.4-.6-1.1-2.1-2.3-3.2-2.3-4.1.2-7.3-1.4-10.2-4-1.9-1.7-4-2.2-6.6-1.1-5.9,2.5-9.7,6.7-11.2,13-1.2,4.8-4.1,6.5-8.5,4.9-1,3.8,1.2,6.3,3.3,8.9Zm24.1-30.4c6.1,6.2,6.3,6.3,10,3.8-2.8-2.5-6-3.5-10-3.8Z"/>
    <path class="d" d="m194.1,77.1c-2-2.6-4.2-5.1-3.3-8.9,4.4,1.6,7.4,0,8.5-4.9,1.5-6.3,5.3-10.5,11.2-13,2.6-1.1,4.7-.6,6.6,1.1,2.9,2.7,6.1,4.2,10.2,4,1,0,2.5,1.2,3.2,2.3,3.5,5.7,3.6,11.8,1.1,18.4-.9-1.5-1.8-3-2.7-4.7,3.4-1,2.1-3.2,1.3-5.7-3,1.6-2.5,4.6-3.2,7-3.2.3-7-.8-8.4,3.5-1,3,.3,5.1,3,7-3.8.7-6.7-.6-9.5-2-1.6-1.9-3.2-3.7-5-6,1.6-.2,2.3-.3,3-.4,0-.1,0-.2,0-.3h-4.6c.6.8,1.2,1.6,2,2.4,1.5,1.6,3,3.1,4.5,4.6,3.5,3.2,7.8,3,12.7,2.7-5.3,3.1-13.2,2.4-17.5-1.2-1.2-1-2.4-2.1-3.5-3.3-3.1-3.3-2.8-3.2-.8-7.2,1.4-2.7,2-5.7,2.9-8.5-1.7.5-2.1.9-2.2,3.5-.2,3.7-2.1,6.4-4.9,8.3-1.3.9-3.1.8-4.7,1.2,0,0,0,0,0,0Zm21.2-9.1c2.4-.8,3.3-2.6,2.5-5-.2-.6-.9-1.3-1.3-1.4-.6,0-1.8.5-1.9.9-.6,3-1.2,6-1.5,9,0,.7.9,1.7,1.7,2.1.4.2,1.7-.4,1.9-.9.3-.9.3-2,0-2.9-.2-.7-.9-1.2-1.4-1.9Zm4.5-5.1c.2-3.4-.9-5.7-2.6-6-2.4-.3-4.1,1.2-4.7,4.1,3.6-3.7,5-4.9,7.3,1.9Zm10.1-.6c.9,1.6,1.5,2.8,2.3,4.2.4-2.2,0-4.2-2.1-4.5-1.6-.2-2.8,1.2-2.9,3.8,1.1-1.4,1.7-2.2,2.7-3.5Z"/>
    <path class="d" d="m218.2,46.7c4.1.3,7.2,1.3,10,3.8-3.7,2.5-4,2.4-10-3.8Z"/>
    <path class="b" d="m215.3,68c.5.6,1.2,1.2,1.4,1.9.2.9.2,2,0,2.9-.2.5-1.5,1.1-1.9.9-.7-.4-1.7-1.4-1.7-2.1.3-3,.8-6,1.5-9,0-.5,1.3-.9,1.9-.9.5,0,1.1.8,1.3,1.4.8,2.4,0,4.2-2.5,5Z"/>
    <path class="b" d="m219.8,62.8c-2.2-6.8-3.6-5.6-7.3-1.9.6-2.9,2.3-4.4,4.7-4.1,1.7.2,2.8,2.6,2.6,6Z"/>
    <path class="b" d="m212,81.4c-1.5-1.5-3-3.1-4.5-4.6-.7-.8-1.3-1.6-2-2.4h4.6c0,.1,0,.2,0,.3-.7.1-1.4.2-3,.4,1.9,2.2,3.5,4.1,5,6,0,0-.1.2-.2.2Z"/>
    <path class="b" d="m229.9,62.2c-1,1.3-1.7,2.2-2.7,3.5.1-2.6,1.3-4,2.9-3.8,2,.3,2.4,2.2,2.1,4.5-.8-1.4-1.4-2.6-2.3-4.2Z"/>
  </g>
  <g>
    <path class="b" d="m189.2,134c.4-.6.8-1.2,1.2-1.8,0,0,.1,0,.5-.2-.3.7-.6,1.2-.6,1.8,0,.4.2.8.5,1.7.8-1.1,1.3-1.7,1.7-2.2.3.9.7,2.6,1,2.6,1.6,0,3.1-.6,4.7-1.3-.7.6-1.3,1.1-2,1.7.1.2.2.4.4.7.9-.2,1.8-.3,2.4-.5.5.7.7,1.5,1.3,1.8,6.1,3.9,9.8,13.5,6.3,21-.3.6-.2,1.4-.3,1.8-.7.4-1.4.7-1.8,1.2-3.5,4-7.6,5.6-13,5.2-4.4-.3-8-1.6-11.2-4.5-.5-.4-1.2-.6-1.9-.8-4.6-.9-6.2-5.5-3.5-9.2.5-.7.4-2.3.1-3.3-.7-2.8-2.3-5.2-4.4-7.2-2.1-2.1-2.7-4.8-2.3-7.7,1.2-7.4,8.5-10,14.7-5.2,1.9,1.5,3.9,2.9,5.8,4.4,0,0,.2,0,.5,0Zm-9.4,20.4c-4-.6-5-.5-5.1,1-.1,1.6.4,3.4,1.1,4.8.4.7,1.9,1.2,2.9,1.2,1,0,2-.7,3.2-1.1-.4.7-.7,1.3-1.2,2.1,1.6,1,3.2,1.9,4.7,2.9.4-1,.7-1.7,1-2.3.6,1.2,1,3,1.7,3.1,1.2.1,2.5-.7,3.7-1.1,0,.3-.1.9-.2,1.6,8.3.2,9.5-1.4,7.1-7.7-.5,1.7-.9,3.4-1.4,5.1-.2,0-.4,0-.5-.1.3-1.7.6-3.4,1-5.2l-.8-.2c-.5,1.2-1.1,2.3-1.6,3.5-.1,0-.2,0-.3-.1.1-1.3.2-2.6.3-4-.2,0-.4-.1-.6-.2-.5.9-1,1.8-1.5,2.7-.2-1,.1-1.8.4-2.6.1-.4.2-1,.1-1.4-.5-2,.7-3.3,2.8-2.9-2.2,1.5-2.4,3.1-.3,3.9,2.1.9,4.3,1,6.5-.1,1.7-.9,2.4-2.9,1.7-4.7-.8-2.1-2.1-2.8-4.2-2.2-.8.2-1.5.4-2.3.5,0-.3-.1-.5-.2-.8,1.4-.3,2.9-1.2,4.1-.9,4.2,1,3.7,4.5,3.6,7.8.5-.4.7-.6.8-.9.9-4.1,1.6-8-2.3-11.4-1.5-1.3-2-3.4-4.2-.5,0-.2-.2-.5-.2-.7.6-.9,1.1-1.9,1.7-2.8-2.5-1.9-2.7-1.8-5.6-1.4-.8.1-1.7-.8-2.7-1.2-1,2.2-3.3.3-5,.8-1.2.3-2.8,0-4,.7-3.1,1.8-5.1,4.5-6.2,7.9-.9,3.1-.5,4.9,2.3,6.9Zm3.4-23.2c-3.8-3.6-9.2-3.9-12.1-.7-2.9,3.2-2.5,8.3.9,11.3,2.9-4.4,6.3-8.3,11.2-10.6Zm5.3,4.9c-.1-.4-.3-.8-.4-1.1-4.5.4-7.8,2.9-10.7,6.1-1.6,1.8-2.8,3.9-1.6,6.7,1.1-6.1,7-7.7,10.6-11.4,0,0,.3.2.5.1.6,0,1.2-.2,1.7-.4Zm12,28.1c2.9-1.1,2.8-2.5-.4-5.5.1,1.9.3,3.6.4,5.5Z"/>
    <path class="d" d="m179.8,154.3c-2.8-2-3.3-3.8-2.3-6.9,1.1-3.4,3.1-6.1,6.2-7.9,1.3-.7,2.9-.4,4-.7,1.8-.5,4,1.4,5-.8,1,.5,1.9,1.3,2.7,1.2,2.9-.4,3.1-.5,5.6,1.4-.6.9-1.1,1.9-1.7,2.8,0,.2.2.5.2.7,2.2-2.9,2.7-.9,4.2.5,3.9,3.4,3.2,7.3,2.3,11.4,0,.3-.3.5-.8.9.1-3.3.6-6.9-3.6-7.8-1.2-.3-2.7.6-4.1.9,0,.3.1.5.2.8.8-.2,1.5-.3,2.3-.5,2.1-.6,3.4.1,4.2,2.2.7,1.8,0,3.8-1.7,4.7-2.1,1.1-4.4,1-6.5.1-2.1-.8-1.9-2.4.3-3.9-2.1-.4-3.4,1-2.8,2.9.1.4,0,1-.1,1.4-.2.8-.5,1.6-.4,2.6.5-.9,1-1.8,1.5-2.7.2,0,.4.1.6.2-.1,1.3-.2,2.6-.3,4,.1,0,.2,0,.3.1.5-1.2,1.1-2.3,1.6-3.5l.8.2c-.3,1.7-.6,3.4-1,5.2.2,0,.4,0,.5.1.5-1.7.9-3.4,1.4-5.1,2.4,6.2,1.2,7.9-7.1,7.7,0-.7.2-1.3.2-1.6-1.2.4-2.5,1.3-3.7,1.1-.6,0-1-1.9-1.7-3.1-.2.6-.5,1.3-1,2.3-1.6-1-3.1-1.9-4.7-2.9.5-.8.8-1.4,1.2-2.1-1.2.4-2.2,1.2-3.2,1.1-1,0-2.5-.5-2.9-1.2-.7-1.4-1.3-3.2-1.1-4.8.1-1.5,1.1-1.5,5.1-1Zm-.3,2.9c.1-.2.2-.4.3-.6-1-.5-1.9-1.2-2.9-1.5-.4-.1-1.6.7-1.6.8.5,1.5,1.1,3,1.7,4.4.2,0,.3-.1.5-.2,0-1.2-.2-2.4-.3-4,1.1.5,1.7.8,2.4,1Zm5.5-11.7c.8-1.1,1.4-2.7,2.5-3.2,1-.4,2.5.3,3.7.6-.6-1.3-1.6-2.6-3.5-2.2-2.6.6-2.3,3-2.7,4.8Zm.9,3.1l.3.9c2.5-.8,5.1-1.5,7.6-2.3,0-.3-.2-.6-.3-.9-2.5.8-5.1,1.6-7.6,2.3Z"/>
    <path class="d" d="m183.1,131.1c-4.9,2.3-8.3,6.2-11.2,10.6-3.4-3-3.7-8.1-.9-11.3,2.9-3.2,8.2-2.9,12.1.7Z"/>
    <path class="d" d="m188.5,136c-.6.1-1.1.3-1.7.4-.1,0-.4-.2-.5-.1-3.6,3.7-9.4,5.3-10.6,11.4-1.2-2.8,0-4.9,1.6-6.7,2.9-3.2,6.3-5.7,10.7-6.1.1.4.3.8.4,1.1Z"/>
    <path class="d" d="m200.5,164.1c-.1-1.9-.3-3.6-.4-5.5,3.2,3.1,3.2,4.4.4,5.5Z"/>
    <path class="b" d="m179.4,157.3c-.6-.3-1.3-.5-2.4-1,.1,1.6.2,2.8.3,4-.2,0-.3.1-.5.2-.6-1.5-1.2-2.9-1.7-4.4,0-.1,1.2-.9,1.6-.8,1,.3,2,1,2.9,1.5-.1.2-.2.4-.3.6Z"/>
    <path class="b" d="m184.9,145.6c.4-1.8,0-4.2,2.7-4.8,1.9-.4,3,.9,3.5,2.2-1.3-.2-2.8-1-3.7-.6-1.1.5-1.7,2.1-2.5,3.2Z"/>
    <path class="b" d="m185.8,148.7c2.5-.8,5.1-1.6,7.6-2.3,0,.3.2.6.3.9-2.5.8-5.1,1.5-7.6,2.3l-.3-.9Z"/>
  </g>
  <g>
    <path class="d" d="m276.8,127.4c.5,0,1.1,0,1.6.1,9.8-3.6,18.5-.4,20.8,7.7-5.5-.4-9.9,2.3-14,5.5-2.9,2.3-6.1,4.2-9,6.6-3.3,2.7-6.3,5.7-9.5,8.5,0,0,.1-.1.1-.1-1.9,2.5-3.7,5-6.3,8.5-1.4-2.7-3.6-4.9-3.6-7.2,0-3.5,2.8-5.9,6.2-8,0,1.3,0,2,0,2.7,0,.5.3,1,.8,2.5,1.1-10.7,4.5-19,12.2-25.3.3-.3.4-1,.5-1.4Z"/>
    <path class="b" d="m266.8,155.9c3.1-2.9,6.2-5.8,9.5-8.5,2.9-2.4,6-4.3,9-6.6,4.1-3.2,8.5-5.9,14-5.5-2.3-8.2-11-11.3-20.8-7.7,3.1-1,6.3-3,9.3-2.8,6,.4,11.3,2.9,13.9,9.1.3.8.8,1.5,1.3,2.1,5,5.4,5.7,9.2,2.5,15.7-1.6,3.3-1.7,5.9.2,9.3,4.5,8,4.9,16.7,3.3,25.6-2.6,14.3-19.4,18.7-30,12.6-1.6-.9-3.7-1.2-5.5-1-4.2.5-8-1.2-10.2-5-2.7-4.8-2.3-8.1.8-11.9.9-1,1.1-2.7,1.2-4.2.2-2.1,0-4.2-.2-6.3-.2-3.1-1.5-5.2-4.7-5.9-4.8-1.2-6.7-4-5.1-8.6,1-2.9,2.7-6.2,5.1-7.8,3-2.1,4.3-4.6,5.6-7.7,2.3-5.4,5.3-10.5,10.9-13.3-.2.5-.2,1.2-.5,1.4-7.7,6.3-11.2,14.6-12.2,25.3-.5-1.5-.7-2-.8-2.5,0-.7,0-1.4,0-2.7-3.4,2.1-6.2,4.5-6.2,8,0,2.3,2.2,4.5,3.6,7.2,2.6-3.5,4.4-6,6.3-8.5-.7,1.8-1.6,3.5-2.2,5.3-.4,1.4-.4,3-.6,4.5.5,0,.9.2,1.4.3,3.8-5.5,7.6-11,11.3-16.6-.2-.2-.4-.4-.7-.6-3.1,2.4-6.2,4.8-9.3,7.2Zm6.7,25.3l-.6,1c-5.3-1.7-8-1.1-9.6,2.1-1.4,2.9.3,8.6,3.4,10.8,3.5,2.6,6.8,1.8,11.6-3.5-2.3,4.2-.1,5.3,2.4,6.2,1.2.4,2.3,1,3.4,1.5,7.5,2.9,19-1.9,21.7-9.4,3.6-9.8,3.6-19.4-1.9-28.7-3.8-6.3-3.7-6.6-9.2-3.3,1.4-2.1,2.2-3.3,3.1-4.6-9.7-6-18.5-3.8-25.4,5.3-4.8,6.4-7.4,12.9-5.2,20.4,2.3.8,4.3,1.5,6.4,2.3Zm5.9-32.6c.3.3.6.7.9,1,8.1-2,15.2,0,22,5.1,1-2.5,2.2-4.6,2.7-6.9.9-3.6.2-7.2-2.6-9.6-2.6-2.2-6.1-2.2-8.9-.3-4.8,3.3-9.4,7-14,10.6Z"/>
    <path class="d" d="m266.8,155.9c3.1-2.4,6.2-4.8,9.3-7.2.2.2.4.4.7.6-3.8,5.5-7.6,11-11.3,16.6-.5,0-.9-.2-1.4-.3.2-1.5.2-3.1.6-4.5.5-1.8,1.4-3.5,2.2-5.3,0,0-.1.1-.1.1Z"/>
    <path class="d" d="m273.6,181.2c-2-.7-4.1-1.4-6.4-2.3-2.2-7.5.3-14,5.2-20.4,6.9-9.1,15.7-11.3,25.4-5.3-.8,1.2-1.7,2.5-3.1,4.6,5.5-3.3,5.4-3,9.2,3.3,5.6,9.3,5.5,18.9,1.9,28.7-2.7,7.5-14.2,12.3-21.7,9.4-1.2-.5-2.3-1.1-3.4-1.5-2.5-.9-4.7-1.9-2.4-6.2-4.8,5.3-8.1,6.1-11.6,3.5-3-2.2-4.8-7.9-3.4-10.8,1.6-3.2,4.3-3.8,9.6-2.1l.6-1Zm13.8-13.4c-.2-1.6,0-2.4-.4-2.9-1.2-1.8-2.5-3.6-3.8-5.3-.4,2.1-.9,4.1-1.2,6.2,0,.6.3,1.4.7,1.9.9,1.1,1.9,2,2.8,3,.8-1.1,1.5-2.3,1.9-2.9Zm14.6,2.4c2-4.6.4-9.7-3.2-10.5-.4,3.9-.1,7.5,3.2,10.5Zm-34.2,14.5c-.3,2.3-.6,4.2-.7,5.1.7-1,1.7-3,3.2-4,.6-.4,2.6,1.4,4,2.1.2-.3.4-.6.6-.8-1.9-1.2-3.7-3.2-5.7-3.5-1.6-.2-3.5,1.6-5.2,2.5.2.3.4.7.6,1,1-.8,2-1.5,3.1-2.4Z"/>
    <path class="d" d="m279.5,148.5c4.7-3.5,9.2-7.3,14-10.6,2.8-1.9,6.3-1.9,8.9.3,2.9,2.4,3.5,6,2.6,9.6-.5,2.2-1.7,4.4-2.7,6.9-6.8-5-13.9-7.1-22-5.1-.3-.3-.6-.7-.9-1Z"/>
    <path class="b" d="m287.3,167.8c-.4.6-1.1,1.7-1.9,2.9-1-1-2-1.9-2.8-3-.4-.5-.7-1.3-.7-1.9.3-2.1.8-4.2,1.2-6.2,1.3,1.8,2.6,3.5,3.8,5.3.3.5.2,1.3.4,2.9Z"/>
    <path class="b" d="m301.9,170.2c-3.3-3-3.6-6.6-3.2-10.5,3.6.8,5.2,5.9,3.2,10.5Z"/>
    <path class="b" d="m267.7,184.7c-1.1.9-2.1,1.6-3.1,2.4-.2-.3-.4-.7-.6-1,1.7-.9,3.6-2.7,5.2-2.5,2,.3,3.8,2.2,5.7,3.5-.2.3-.4.6-.6.8-1.4-.8-3.4-2.5-4-2.1-1.6,1.1-2.5,3-3.2,4,.1-.8.4-2.8.7-5.1Z"/>
  </g>
  <g>
    <path class="c" d="m835,174.4c1.8.8,2.5,2,2.1,3.5h0c-.4,1.9-2.7,2.7-6.7,2.5-4.6.6-7,1.1-7.1,1.7,1,4.5,1.4,9.2,1.4,14.2l-.3,5.4c-.4,1.5-1.6,2.2-3.6,2.1-2-.5-2.6-2.9-1.9-7.3,0-5.2-.4-9.3-1.3-12.3l-.4-.4h-.1c-4.5,1-7.4,1.4-8.7,1.1-1.6-.6-2.4-1.9-2.4-4,.4-1.4,1.9-2.3,4.5-2.6l1.6.6,13-3.5c1.5-.4,4.8-.7,9.9-.8Z"/>
    <path class="c" d="m862.7,182.1c1.8,1,2.6,2.2,2.2,3.7-.2,3.4-1,7.7-2.3,12.9l-.5,2.1c-.6,2.6-1,5.6-1.2,8.9-.4,1.6-1.6,2.2-3.8,2-1.3-.3-2-1.4-2.2-3.2.1-3.4,1.1-8.8,3-16.5h-.1c-3.7,2.6-7.3,5.9-10.9,9.9-1.3,2-2.7,2.7-4.3,2.4s-4-4.6-6.1-12.2c-.4-1.4-.7-2.1-1-2.2-.7,1.5-1.8,4.9-3.4,10.1-1.1,1.1-2.3,1.5-3.7,1.2s-2-1.5-2-3.5l3.8-11.2,1.1-6.3c.4-1.6,1.8-2.3,4.3-2.2,2.1.5,4.7,5.9,7.6,16.1l.7,1.8h.1c.3,0,1.6-1.3,3.7-3.6l12.2-10.2c.5-.2,1.3-.2,2.6-.1Z"/>
  </g>
  <g>
    <path class="c" d="m778.9,170.1c1.2,0,1.8.4,2,1.3h0c.2,1.1-.7,2.1-2.9,3.1-2.3,1.5-3.4,2.4-3.3,2.8,1.7,2.1,3.2,4.5,4.5,7.1l1.3,3c.2.9-.3,1.6-1.4,2.1-1.2.3-2.2-.9-2.9-3.4-1.4-2.7-2.7-4.8-3.9-6.2h-.3c0-.1,0,0,0,0-2.1,1.8-3.5,2.7-4.3,2.9-1,.1-1.8-.4-2.3-1.5-.2-.9.4-1.7,1.7-2.6h1c0-.1,6-5.4,6-5.4.7-.6,2.4-1.6,5-3.1Z"/>
    <path class="c" d="m795.6,166.9c1.2,0,1.9.5,2.1,1.4.8,1.8,1.5,4.3,2.2,7.5l.3,1.3c.3,1.6.9,3.2,1.7,5,.2.9-.3,1.6-1.5,2.1-.8.2-1.4-.2-2-1.1-.8-1.8-1.7-5-2.8-9.5h0c-1.3,2.4-2.3,5.1-3.2,8.2-.2,1.4-.7,2.2-1.7,2.4s-3.3-1.4-6.4-4.9c-.6-.6-.9-.9-1.1-.9,0,1,.3,3,.9,6.3-.3.9-.8,1.4-1.7,1.6s-1.4-.3-2-1.3l-1-7-1.1-3.6c-.2-.9.3-1.7,1.7-2.3,1.3-.3,4,1.9,8.3,6.5l.9.8h0c.1-.2.5-1.1,1-3l3.8-8.6c.2-.2.6-.5,1.3-.7Z"/>
  </g>
  <g>
    <path class="c" d="m142.6,92.8c1.2,0,1.8.4,2,1.3h0c.2,1.1-.7,2.1-2.9,3.1-2.3,1.5-3.4,2.4-3.3,2.8,1.7,2.1,3.2,4.5,4.5,7.1l1.3,3c.2.9-.3,1.6-1.4,2.1-1.2.3-2.2-.9-2.9-3.4-1.4-2.7-2.7-4.8-3.9-6.2h-.3c0-.1,0,0,0,0-2.1,1.8-3.5,2.7-4.3,2.9-1,.1-1.8-.4-2.3-1.5-.2-.9.4-1.7,1.7-2.6h1c0-.1,6-5.4,6-5.4.7-.6,2.4-1.6,5-3.1Z"/>
    <path class="c" d="m159.3,89.6c1.2,0,1.9.5,2.1,1.4.8,1.8,1.5,4.3,2.2,7.5l.3,1.3c.3,1.6.9,3.2,1.7,5,.2.9-.3,1.6-1.5,2.1-.8.2-1.4-.2-2-1.1-.8-1.8-1.7-5-2.8-9.5h0c-1.3,2.4-2.3,5.1-3.2,8.2-.2,1.4-.7,2.2-1.7,2.4s-3.3-1.4-6.4-4.9c-.6-.6-.9-.9-1.1-.9,0,1,.3,3,.9,6.3-.3.9-.8,1.4-1.7,1.6s-1.4-.3-2-1.3l-1-7-1.1-3.6c-.2-.9.3-1.7,1.7-2.3,1.3-.3,4,1.9,8.3,6.5l.9.8h0c.1-.2.5-1.1,1-3l3.8-8.6c.2-.2.6-.5,1.3-.7Z"/>
  </g>
  <g>
    <path class="c" d="m148.3,60.4c1.3.5,1.8,1.3,1.6,2.4h0c-.3,1.3-1.8,2-4.6,1.9-3.2.5-4.8,1-4.9,1.4.8,3.1,1.3,6.4,1.4,9.8v3.8c-.3,1.1-1.1,1.6-2.5,1.6-1.4-.3-1.9-2-1.5-5-.2-3.6-.6-6.5-1.2-8.6l-.3-.3h0c-3.1.9-5.1,1.2-6.1,1-1.1-.4-1.7-1.3-1.8-2.7.2-1,1.2-1.7,3.1-1.9l1.2.3,9-2.8c1-.3,3.3-.6,6.9-.9Z"/>
    <path class="c" d="m167.8,65c1.3.6,1.9,1.5,1.7,2.5,0,2.4-.5,5.4-1.2,9.1l-.3,1.5c-.4,1.8-.6,3.9-.5,6.3-.2,1.1-1.1,1.6-2.6,1.5-.9-.2-1.4-.9-1.6-2.2,0-2.3.5-6.2,1.6-11.6h0c-2.5,1.9-4.9,4.3-7.3,7.2-.8,1.4-1.8,2-2.9,1.8s-2.9-3.1-4.6-8.3c-.3-.9-.6-1.4-.7-1.5-.4,1-1.1,3.4-2.1,7.2-.7.8-1.6,1.1-2.6.9s-1.4-1-1.5-2.4l2.3-8,.6-4.4c.2-1.1,1.2-1.7,2.9-1.7,1.5.3,3.4,4,5.8,11l.6,1.2h0c.2,0,1.1-1,2.5-2.7l8.2-7.5c.3-.1.9-.2,1.8-.2Z"/>
  </g>
  <g>
    <path class="c" d="m1001.1,72.3c1,.6,1.3,1.4,1,2.2h0c-.4,1.1-1.8,1.4-4.1.9-2.7,0-4.2.1-4.3.4.2,2.7.1,5.5-.3,8.4l-.6,3.2c-.3.9-1.1,1.2-2.3.9-1.1-.4-1.3-1.9-.6-4.4.4-3,.5-5.5.2-7.3l-.2-.3h0c-2.7.2-4.5.2-5.2,0-.9-.5-1.3-1.3-1.1-2.5.3-.8,1.3-1.2,2.8-1.2l.9.5,7.9-1c.9-.1,2.9,0,5.9.3Z"/>
    <path class="c" d="m1016.7,79c1,.7,1.3,1.5,1,2.3-.4,2-1.2,4.4-2.4,7.4l-.5,1.2c-.6,1.5-1,3.2-1.4,5.1-.3.9-1.1,1.2-2.4.9-.7-.3-1.1-1-1-2.1.3-2,1.4-5.1,3.1-9.4h0c-2.4,1.2-4.8,2.9-7.2,4.9-.9,1.1-1.8,1.4-2.7,1s-2-3-2.6-7.6c-.1-.8-.3-1.3-.4-1.3-.5.8-1.4,2.7-2.8,5.7-.7.6-1.5.7-2.3.4s-1-1-.9-2.2l3.1-6.3,1.1-3.6c.4-.9,1.2-1.2,2.7-1,1.2.5,2.3,3.8,3.2,10.1l.3,1.1h0c.2,0,1-.6,2.5-1.8l7.9-5c.3,0,.8,0,1.5.1Z"/>
  </g>
  <text class="e" transform="translate(228 139.6)"><tspan x="0" y="0">ALL MY FRIENDS ARE BETTYS</tspan></text>
  <path class="b" d="m1023.6,122.2c-.3.4-.7.7-1.1.8-.2,0-.3.1-.5.2-.1,0-.3.2-.4.2-.9.1-1.6.7-2.4,1.1-.6.4-1.2.9-1.1,1.7,0,.4-.1.6-.4.8-.5.5-1,.9-1.5,1.4-.5.5-.7,1.1-.9,1.8,0,.2,0,.4.1.5.1.4.3.8.3,1.3,0,.6,0,1.1-.4,1.6-.2.3-.2.7-.1,1.1,0,.3,0,.5.2.8.6,1.6.3,3.1-.3,4.5,0,.2-.2.3-.3.5-.3.7-.5,1.3-.4,2.1,0,.6,0,1.1,0,1.7,0,.6,0,1.3,0,1.9.1,1.1-.5,1.9-1.3,2.5-.5.4-1,.6-1.6,1-.4.3-.8.5-1.3.8-.7.4-1.6.6-2.4.8-.4.1-.9.2-1.3.2-.3,0-.6,0-.8-.3-.4-.4-.9-.8-1.4-1.1-.5-.3-.7-.7-.7-1.3,0-.2,0-.4,0-.6,0-1-.4-1.6-1.4-1.9-.7-.2-1.4-.3-2.1,0-.4.2-.8.4-1.2.5-.2,0-.4.1-.7.2-.6.1-1.2.2-1.8.4-.9.3-1.9.3-2.8,0-.6-.2-1.3-.5-1.9-.7-.3-.1-.6-.1-.9,0-.4,0-.7,0-1.1,0-.2,0-.5-.2-.6-.3-1-1-2.2-1.4-3.5-1.4-1,0-1.7-.6-2.3-1.3-.3-.4-.7-.6-1.1-.9-.5-.3-1-.7-1.5-1.1-.3-.2-.4-.5-.4-.8-.2-.5-.2-1.1-.2-1.7,0-.7.4-1.3,1.1-1.5.3-.1.7-.2,1-.3.9-.2,1.5-.7,1.9-1.5.3-.5.6-.9.9-1.3.8-.8,1.3-1.8,1.9-2.7.3-.5.2-1.1-.4-1.4-.2-.1-.4-.2-.6-.2-.8-.1-1.5-.4-2-1-.5-.5-1-1-1.4-1.4-.6-.6-1.3-1-2.2-1-1.5,0-3-.3-4.4-.7-.7-.2-1.4-.3-2.1-.2-.7.1-1.4.1-2.1.2-1.1,0-2.2,0-3.3.1-.5,0-1,0-1.5-.1-.9-.1-1.6.1-2.4.4-.5.2-1.1.3-1.6.3-.2,0-.5,0-.7,0-.6,0-.9-.3-.9-.9,0-.8,0-1.5.6-2.1.4-.4.6-1,.6-1.6,0-.4.2-.7.4-1,.3-.4.7-.5,1.2-.5.8,0,1.5,0,2.3.3.6.2,1.3.3,1.9,0,.9-.2,1.8-.2,2.7.2.7.3,1.4.4,2.2.3.8-.2,1.6-.1,2.5.1.7.2,1.4.3,2.2.1.2,0,.5-.1.6-.2.7-.7,1.6-.6,2.5-.5.6,0,1.2.2,1.8,0,.5-.1.9-.3,1.3-.6.4-.3.8-.5,1.2-.8.3-.2.5-.3.8-.3.8,0,1.4-.4,1.9-1,.4-.5.8-.9,1.4-1.1.3-.1.5-.3.6-.6,0-.2.2-.3.3-.4.5-.6,1.1-.8,1.8-.6,1.3.3,2.7.2,4-.1.6-.2,1.2-.3,1.9-.4.8-.1,1.5,0,2.2.3.3.1.7.2,1,.3.8.2,1.4,0,1.8-.8.2-.3.4-.5.6-.7.4-.4.8-.8,1-1.3-.2-.5-.5-1-1-1.3-.3-.2-.5-.4-.7-.7-.2-.2-.3-.5-.3-.9,0-1-.4-1.6-1.4-1.9-.8-.2-1.4-.8-1.9-1.4-.2-.3-.4-.6-.3-1,0-.2,0-.4,0-.6,0-.7.4-1.2,1.2-1.2.8,0,1.5,0,2.3-.3.3,0,.7,0,1.1,0,.1,0,.3.1.4.2.2.2.4.5.5.8.3.5.7.7,1.3.7.7,0,1.3,0,1.9.4.5.3.9.4,1.5.4.6,0,1.1.4,1.6.7.5.2.9.4,1.4.7.3.2.6.3.8.6.3.3.6.6.9,1,.3.4.6.8.7,1.4.1.9.7,1.3,1.5,1.6.5.2,1,.4,1.5.6.6.3.9.8.9,1.5,0,.9.5,1.4,1.3,1.7.3.1.5.3.8.5.3.2.5.5.5,1,0,.5.3.8.7,1,.9.4,1.4,1.2,1.8,2.1,0,.2.2.4.3.6v1.5Z"/>
  <path class="b" d="m946.4,211.8c-.8-.2-1.6-.4-2.4-.5-.5-.1-2.6-1-3-1.4-.2-.2-.4-.4-.6-.7-.2-.4-.5-.7-.9-1-.2-.2-.4-.4-.7-.5-.3-.2-.5-.4-.8-.5-1.1-.6-2.1-1.3-3-2.1-.4-.3-.6-.7-.7-1.2-.2-.7-.6-1.3-1-1.8-.4-.4-.7-.8-.8-1.4,0-.3-.3-.5-.6-.6-.5-.3-1-.7-1.4-1.1-.3-.3-.5-.6-.6-1-.3-1.2-.3-2.3-.2-3.5,0-.6.6-1.2,1.2-1.4.8-.2,1.5-.6,2.2-.9.3-.1.6-.2.9-.3.6-.1,1.1,0,1.4.6.3.5.7.8,1.2.9.1,0,.3,0,.4,0,.4-.2.9-.3,1.3-.7.6-.6,1.2-.6,1.9-.5.5,0,1,.1,1.4.1.8,0,1.5-.3,2.1-.8.5-.4,1.1-.5,1.8-.5.8,0,1.6.2,2.4.4.2,0,.4,0,.5.2.5.4,1,.8,1.5,1.2.3.3.7.5,1.1.6.7.2,1.3.4,2,.6,0,0,.1,0,.2.1.6.5,1.2.9,1.8,1.4.1.1.3.3.3.4.3.9.7,1.6,1.2,2.3.5.7.6,1.5.7,2.3,0,.7,0,1.5-.2,2.2,0,.1,0,.3,0,.4,0,.9-.4,1.5-1.1,1.9-.6.4-1,.9-1.3,1.4-.4.8-.9,1.5-1.6,2.2-.2.2-.3.5-.4.7-.2.5-.6.9-1,1.2-.2.1-.5.2-.8.2-1,.1-2,.4-3,.7h-1.2Z"/>
  <path class="b" d="m870.3,150.7c-.8,0-1.7-.1-2.5-.2-.2,0-.3,0-.5,0-1,0-1.3-.6-1.1-1.5.1-.6.4-1.1.9-1.5.3-.3.6-.5,1.1-.4.6,0,1.1-.1,1.6-.5.3-.2.6-.4.8-.6.5-.4,1.1-.4,1.7-.3.2,0,.5.2.7.3.2.2.4.4.6.6.3.4.6.6,1.1.7,1.3.4,2.6.8,3.9,1.2.3.1.7.3,1,.4.9.3,1.9.3,2.8,0,1.1-.3,2.1-.2,3.2.2.2,0,.5.2.7.2.7,0,1.2.4,1.5.9.3.6.7,1,1.3,1.4.8.5,1.5,1.2,2,2,.1.2.3.4.4.5.3.3.7.6,1.2.5.3,0,.6,0,.9,0,.3,0,.5.2.7.4.4.4.8.9,1.2,1.3.4.4.7.9,1.1,1.3.9.9,1.9,1.7,3.1,2.1.7.2,1.2.6,1.6,1.2.1.2.3.3.5.5.3.2.6.5.9.7.3.3.5.6.5,1,0,.3.2.6.4.9.3.3.5.7.8,1.1.4.4.5.9.6,1.5,0,0,0,0,0,0,0,.7.2,1.3.8,1.8.5.5.8,1.1.8,1.9,0,.5,0,1,0,1.5,0,.6.3,1.1.7,1.5.4.4.7.8.9,1.3.2.5.2,1,0,1.5-.1.4-.5.6-.8.9-.3.3-.6.5-.9.7-1,.8-1.8,1.8-2.6,2.7-.3.4-.6.9-.8,1.3-.3.7-.7,1.3-1.3,1.8-.3.2-.5.5-.7.7-.5.5-1,1-1.5,1.4-.3.3-.6.4-1,.4-.5,0-1,0-1.5,0-.3,0-.5,0-.8,0-1,.2-2,.3-3,.2-.5,0-.9,0-1.4.1-.7.2-1.4.4-2.2.4-.7,0-1.4.3-2,.7-.4.3-.8.5-1.3.4-.2,0-.4,0-.6-.2-.2,0-.3-.2-.4-.3-.7-.7-1.6-.9-2.6-.9-1,0-2,0-3-.3-.2,0-.4,0-.5,0-.4,0-.8,0-1.2,0-.7,0-1.1-.4-1.3-1-.1-.3-.2-.6-.3-.9-.1-.3-.2-.6-.3-.9-.2-.4-.2-.9-.1-1.3.1-.5.5-.8,1-.9.1,0,.3,0,.4,0,1.4,0,2.9,0,4.2.6,1.1.5,2.3.7,3.6.8,1.1,0,2.3.1,3.4.2.2,0,.4,0,.5,0,.6.1,1.3,0,1.9,0,.7,0,1.3.1,2,.2.6,0,1.2,0,1.7-.2.5-.2,1-.4,1.5-.5.7,0,1.3-.3,1.8-.7.2-.2.4-.4.6-.7.5-.6,1-1.2,1.6-1.8.7-.8,1-1.6.9-2.7,0-.9,0-1.7,0-2.6,0-.5-.1-1-.4-1.4-.4-.5-1-.6-1.6-.4-.5.2-.9.5-1.4.7-.3.1-.6.2-.9.3-.7.2-1.3.4-2,.6-.3,0-.7.2-1.1.2-.6,0-1.2,0-1.8,0,0,0-.2,0-.3,0-.7.2-1.4.1-2.1.1-.1,0-.2,0-.3,0-.8-.3-1.6-.3-2.4-.4-.6,0-1.2-.2-1.7-.6-.8-.5-1.6-1-2.5-1.4-.6-.2-1.1-.5-1.6-.9-.3-.2-.5-.5-.7-.7-.2-.3-.5-.6-.7-.9-.2-.2-.4-.4-.6-.7-.4-.6-1-1.2-1.7-1.5-.5-.3-.9-.6-1.2-1-.4-.5-.6-1.1-.6-1.7,0-.6.1-1.1.3-1.6.2-.6.2-1.2.2-1.9,0-1,.4-1.5,1.3-1.7.8-.2,1.2-.7,1.4-1.4.1-.5,0-1.1-.4-1.5-.6-.7-.9-1.5-1.3-2.3-.4-.8-1-1.3-1.8-1.6-.3-.1-.6-.2-.9-.3-.4-.2-.8-.3-1.2-.5-.8-.4-1.6-.7-2.5-.6-.1,0-.3,0-.4,0,0,0,0,0,0,0Z"/>
  <path class="b" d="m938.3,127.6c.4,0,1,0,1.6.2.9.2,1.7,0,2.5-.4,1.2-.6,2.5-.5,3.7-.2.4.1.8.2,1.3.3.6,0,1,.5,1,1.1,0,.3,0,.6,0,.9-.2.6-.6.9-1.1,1.2-.3.1-.5.3-.8.4-.5.3-.8.7-1,1.2-.2.4-.4.9-.6,1.3-.3.6-.4,1.2-.3,1.9.2.8.2,1.5.2,2.3,0,1,.3,1.8,1,2.5.4.3.6.7.8,1.2.3.7.6,1.4,1.1,2,.3.4.4.8.5,1.2,0,.2,0,.4.1.5.3.9.8,1.4,1.8,1.4,1,0,1.6.5,1.9,1.3.5,1.1,1.3,1.8,2.4,2.3.5.3,1,.5,1.6.7.2,0,.3.2.5.3.4.4.9.8,1.3,1.2.4.4.8.5,1.3.5.4,0,.9,0,1.3,0,.6,0,1.1.4,1.3.8.6,1.1,1.7,1.4,2.7,1.8.5.1,1,.2,1.5.2.8,0,1.5.3,2.2.7.5.4,1.1.4,1.7.3,1-.2,1.9,0,2.7.7.7.6,1.6.8,2.6.8.2,0,.4,0,.6-.2.3-.1.6-.2.8-.4.5-.3.9-.4,1.5-.3.1,0,.2,0,.3,0,.6.4,1.2.4,1.8.4,1,0,1.9.2,2.9.5.4.1.8.2,1.2.3.3,0,.5,0,.7-.2.9-.7,1.8-.7,2.9-.7.6,0,1.1,0,1.7-.2.4-.1.9-.1,1.3-.1.5,0,.9.5.9,1,0,.5,0,.8-.5,1.1-.5.4-1,.7-1.7.9-1.2.3-2.4.7-3.3,1.6-.4.3-.8.5-1.3.5-.5,0-1.1,0-1.6.4-.2.1-.4.3-.6.5-.3.6-.6,1.2-1,1.8-.2.3-.4.6-.6.9-.4.5-1,.6-1.6.5-.1,0-.2,0-.3-.1-.7-.6-1.3-1.3-1.3-2.3,0-.5-.2-1-.6-1.4-.5-.5-1-1-1.4-1.7-.2-.2-.5-.4-.8-.5-.8-.2-1.7-.4-2.5-.6-.3,0-.6,0-.9,0-.9.2-1.9.2-2.8,0-.5-.1-1.1,0-1.5.2-.4.2-.9.5-1.3.7-.3.2-.6.4-1,.5-.7.2-1,.7-1.4,1.2-.1.2-.2.4-.3.5-.6.7-1.3.8-2.1.2-.6-.5-.9-1.1-.9-1.8,0-.7-.3-1.5-.7-2.1-.2-.3-.4-.7-.5-1-.3-.7-.8-1.1-1.6-1.1-.5,0-.8-.2-1.2-.4-.6-.5-1.1-1.1-1.6-1.7-.5-.6-1.1-1-1.8-1.1-.9-.1-1.5-.7-1.9-1.5-.2-.4-.4-.8-.7-1.1-.3-.4-.8-.5-1.2-.6-.5,0-.9,0-1.4-.1-.7,0-1.2-.4-1.3-1.1-.2-1.1-.6-2-1-3-.2-.6-.5-1-1.1-1.3-.3-.2-.6-.4-.9-.6-.3-.2-.5-.4-.7-.7-.3-.4-.6-.8-.9-1.3-.2-.4-.6-.6-1-.7-1-.3-1.7-.9-2.3-1.7-.3-.4-.7-.7-1.1-1-.3-.3-.6-.5-.8-.8-.1-.1-.2-.3-.2-.4-.1-.7.2-1.3.7-1.8.4-.4.8-.8,1.3-1.1.7-.4.9-1.1,1-1.8,0-.2,0-.4-.2-.6-.2-.4-.4-.7-.7-1-.2-.3-.3-.5-.3-.9,0-.6-.3-1.2-.8-1.6-.1,0-.2-.2-.3-.3-.4-.3-.4-.8-.3-1.2,0-.3.3-.4.6-.5.3,0,.7,0,1.1,0Z"/>
  <path class="b" d="m855.1,145.7c.4,0,.7,0,1,.3.3.2.5.4.7.6.4.3.8.4,1.3.4.8-.1,1.6,0,2.4.3.4.2.8.3,1.2.4.3,0,.7.2.9.5.3.4.6.8,1,1.1.5.5.5,1.1.3,1.7,0,.3-.3.6-.4.8-.3.5-.6,1.1-.7,1.7-.1.6-.3,1.1-.6,1.6-.5.9-.7,1.9-.7,2.9,0,.3,0,.6,0,.8,0,.5,0,1.1,0,1.6.2,1,.2,2,0,3.1,0,.3,0,.5-.1.8-.1.5-.4.7-.9.7-.5,0-1,0-1.4-.3-.3-.2-.7-.2-1.1-.2-.3,0-.6,0-.9,0-.6,0-1-.3-1.2-.8-.3-.8-.9-1.4-1.7-1.7-.4-.1-.7-.5-.9-.8,0-.1-.1-.3-.1-.4,0-.4,0-.8,0-1.2.1-.7-.2-1.3-.6-1.8-.3-.3-.6-.6-.9-.8-.3-.3-.5-.6-.5-1,0-.6-.2-1.1-.4-1.7-.2-.5-.1-1,0-1.4.4-1,.7-2,.9-3,0-.3,0-.6,0-1,0-.2,0-.5-.1-.8,0-.5.2-.8.7-1,.7-.2,1.2-.6,1.8-1,.4-.3.7-.6,1.2-.5Z"/>
  <path class="b" d="m998.3,162c-.4.1-.7-.1-.9-.4,0,0-.1-.2-.2-.3-.3-.7-.9-1-1.6-1.1-.4,0-.7,0-1.1-.2-.6-.1-1.1-.4-1.5-.8-.3-.3-.3-.9,0-1.3.4-.4.9-.7,1.4-.9.9-.4,1.7-.7,2.6-1,.5-.2,1.1-.3,1.6-.5.3,0,.6-.2.9-.3.2-.1.5-.3.6-.5.4-.6,1-1.1,1.6-1.6,0,0,.2-.2.3-.2.4,0,.8-.1,1.2-.2.3,0,.6,0,.7.4.1.3.1.7,0,.9,0,.1-.2.2-.3.3-.4.3-.6.8-.8,1.2-.2.5-.3,1-.6,1.5-.2.5-.5,1-.6,1.6-.2,1-.6,1.8-1.6,2.2-.4.2-.7.4-.9.7-.3.3-.6.5-1,.4Z"/>
  <path class="b" d="m992,104.2c-.4,0-.9-.1-1.3,0-.4,0-.8.1-1.2.2-.7,0-1.4.2-2.2.2-.4,0-.8,0-1.1.3-1,.5-2.1.6-3.1.4-.1,0-.3,0-.4,0-.8,0-1.6-.1-2.4-.2-.6,0-.9-.4-.9-1,0-.8.3-1.1.9-1.3.4-.1.8-.3,1.1-.8,0-.1.2-.2.3-.3.5-.4,1-.8,1.5-1.1.7-.3,1.4-.3,2.1,0,.4.2.9.5,1.3.7.2.1.4.2.7.1.5,0,.9-.2,1.4-.4.5-.2,1.1-.2,1.6,0,.4.2.8.5,1.1.8.4.3.7.6,1.2.5.2,0,.3,0,.5,0,.2,0,.3,0,.4.2.2.2.4.9.2,1.2-.2.3-.4.5-.8.5-.3,0-.6,0-.8,0,0,0,0,0,0,0Z"/>
</svg>